<?xml version="1.0" standalone="no"?>
<mlt LC_NUMERIC="C" version="7.28.0" title="Shotcut version 24.06.26" producer="main_bin">
  <profile description="automatic" width="1920" height="1080" progressive="1" sample_aspect_num="1" sample_aspect_den="1" display_aspect_num="16" display_aspect_den="9" frame_rate_num="60" frame_rate_den="1" colorspace="709"/>
  <chain id="chain0" out="00:02:57.083">
    <property name="length">00:02:57.100</property>
    <property name="eof">pause</property>
    <property name="resource">voiceover_1-6_redo.ogg</property>
    <property name="mlt_service">avformat-novalidate</property>
    <property name="meta.media.nb_streams">1</property>
    <property name="meta.media.0.stream.type">audio</property>
    <property name="meta.media.0.codec.sample_fmt">fltp</property>
    <property name="meta.media.0.codec.sample_rate">44100</property>
    <property name="meta.media.0.codec.channels">2</property>
    <property name="meta.media.0.codec.layout">stereo</property>
    <property name="meta.media.0.codec.name">vorbis</property>
    <property name="meta.media.0.codec.long_name">Vorbis</property>
    <property name="meta.media.0.codec.bit_rate">499821</property>
    <property name="seekable">1</property>
    <property name="audio_index">0</property>
    <property name="video_index">-1</property>
    <property name="creation_time">2025-02-26T18:29:06</property>
    <property name="astream">0</property>
    <property name="shotcut:skipConvert">0</property>
    <property name="shotcut:hash">fb6c2121ac06dbf557350e48af7e7f72</property>
    <property name="ignore_points">1</property>
    <property name="shotcut:caption">voiceover_1-6_redo.ogg</property>
    <property name="xml">was here</property>
    <filter id="filter0" out="00:02:57.083">
      <property name="window">75</property>
      <property name="max_gain">20dB</property>
      <property name="level">00:02:56.100=0;00:02:57.083=-60</property>
      <property name="mlt_service">volume</property>
      <property name="shotcut:filter">fadeOutVolume</property>
      <property name="shotcut:animOut">00:00:01.000</property>
    </filter>
  </chain>
  <playlist id="main_bin">
    <property name="xml_retain">1</property>
    <entry producer="chain0" in="00:00:00.000" out="00:02:57.083"/>
  </playlist>
  <producer id="black" in="00:00:00.000" out="00:11:11.467">
    <property name="length">00:11:11.483</property>
    <property name="eof">pause</property>
    <property name="resource">0</property>
    <property name="aspect_ratio">1</property>
    <property name="mlt_service">color</property>
    <property name="mlt_image_format">rgba</property>
    <property name="set.test_audio">0</property>
  </producer>
  <playlist id="background">
    <entry producer="black" in="00:00:00.000" out="00:11:11.467"/>
  </playlist>
  <chain id="chain1" out="00:11:07.383">
    <property name="length">00:11:07.400</property>
    <property name="eof">pause</property>
    <property name="resource">TrigLesson.mp4</property>
    <property name="mlt_service">avformat-novalidate</property>
    <property name="meta.media.nb_streams">1</property>
    <property name="meta.media.0.stream.type">video</property>
    <property name="meta.media.0.stream.frame_rate">60</property>
    <property name="meta.media.0.stream.sample_aspect_ratio">0</property>
    <property name="meta.media.0.codec.width">1920</property>
    <property name="meta.media.0.codec.height">1080</property>
    <property name="meta.media.0.codec.rotate">0</property>
    <property name="meta.media.0.codec.pix_fmt">yuv420p</property>
    <property name="meta.media.0.codec.sample_aspect_ratio">0</property>
    <property name="meta.media.0.codec.colorspace">709</property>
    <property name="meta.media.0.codec.name">h264</property>
    <property name="meta.media.0.codec.long_name">H.264 / AVC / MPEG-4 AVC / MPEG-4 part 10</property>
    <property name="meta.media.0.codec.bit_rate">481468</property>
    <property name="meta.attr.0.stream.handler_name.markup">VideoHandler</property>
    <property name="meta.attr.0.stream.vendor_id.markup">[0][0][0][0]</property>
    <property name="meta.attr.major_brand.markup">isom</property>
    <property name="meta.attr.minor_version.markup">512</property>
    <property name="meta.attr.compatible_brands.markup">isomiso2avc1mp41</property>
    <property name="meta.attr.encoder.markup">Lavf61.1.100</property>
    <property name="meta.attr.comment.markup">Rendered with Manim Community v0.19.0</property>
    <property name="seekable">1</property>
    <property name="meta.media.sample_aspect_num">1</property>
    <property name="meta.media.sample_aspect_den">1</property>
    <property name="format">3</property>
    <property name="audio_index">-1</property>
    <property name="video_index">0</property>
    <property name="creation_time">2025-02-24T13:00:19</property>
    <property name="vstream">0</property>
    <property name="meta.media.frame_rate_num">60</property>
    <property name="meta.media.frame_rate_den">1</property>
    <property name="meta.media.colorspace">709</property>
    <property name="meta.media.color_trc">2</property>
    <property name="meta.media.has_b_frames">2</property>
    <property name="meta.media.width">1920</property>
    <property name="meta.media.height">1080</property>
    <property name="meta.media.aspect_ratio">1</property>
    <property name="meta.media.color_range">mpeg</property>
    <property name="shotcut:skipConvert">0</property>
    <property name="meta.media.top_field_first">0</property>
    <property name="meta.media.progressive">1</property>
    <property name="shotcut:hash">edb0360cac6adc7df47477b30474573a</property>
    <property name="ignore_points">0</property>
    <property name="shotcut:caption">TrigLesson.mp4</property>
    <property name="xml">was here</property>
  </chain>
  <chain id="chain2" out="00:11:07.383">
    <property name="length">00:11:07.400</property>
    <property name="eof">pause</property>
    <property name="resource">TrigLesson.mp4</property>
    <property name="mlt_service">avformat-novalidate</property>
    <property name="meta.media.nb_streams">1</property>
    <property name="meta.media.0.stream.type">video</property>
    <property name="meta.media.0.stream.frame_rate">60</property>
    <property name="meta.media.0.stream.sample_aspect_ratio">0</property>
    <property name="meta.media.0.codec.width">1920</property>
    <property name="meta.media.0.codec.height">1080</property>
    <property name="meta.media.0.codec.rotate">0</property>
    <property name="meta.media.0.codec.pix_fmt">yuv420p</property>
    <property name="meta.media.0.codec.sample_aspect_ratio">0</property>
    <property name="meta.media.0.codec.colorspace">709</property>
    <property name="meta.media.0.codec.name">h264</property>
    <property name="meta.media.0.codec.long_name">H.264 / AVC / MPEG-4 AVC / MPEG-4 part 10</property>
    <property name="meta.media.0.codec.bit_rate">481468</property>
    <property name="meta.attr.0.stream.handler_name.markup">VideoHandler</property>
    <property name="meta.attr.0.stream.vendor_id.markup">[0][0][0][0]</property>
    <property name="meta.attr.major_brand.markup">isom</property>
    <property name="meta.attr.minor_version.markup">512</property>
    <property name="meta.attr.compatible_brands.markup">isomiso2avc1mp41</property>
    <property name="meta.attr.encoder.markup">Lavf61.1.100</property>
    <property name="meta.attr.comment.markup">Rendered with Manim Community v0.19.0</property>
    <property name="seekable">1</property>
    <property name="meta.media.sample_aspect_num">1</property>
    <property name="meta.media.sample_aspect_den">1</property>
    <property name="format">3</property>
    <property name="audio_index">-1</property>
    <property name="video_index">0</property>
    <property name="creation_time">2025-02-24T13:00:19</property>
    <property name="vstream">0</property>
    <property name="meta.media.frame_rate_num">60</property>
    <property name="meta.media.frame_rate_den">1</property>
    <property name="meta.media.colorspace">709</property>
    <property name="meta.media.color_trc">2</property>
    <property name="meta.media.has_b_frames">2</property>
    <property name="meta.media.width">1920</property>
    <property name="meta.media.height">1080</property>
    <property name="meta.media.aspect_ratio">1</property>
    <property name="meta.media.color_range">mpeg</property>
    <property name="shotcut:skipConvert">0</property>
    <property name="meta.media.top_field_first">0</property>
    <property name="meta.media.progressive">1</property>
    <property name="shotcut:hash">edb0360cac6adc7df47477b30474573a</property>
    <property name="ignore_points">0</property>
    <property name="shotcut:caption">TrigLesson.mp4</property>
    <property name="xml">was here</property>
  </chain>
  <chain id="chain3" out="00:11:07.383">
    <property name="length">00:11:07.400</property>
    <property name="eof">pause</property>
    <property name="resource">TrigLesson.mp4</property>
    <property name="mlt_service">avformat-novalidate</property>
    <property name="meta.media.nb_streams">1</property>
    <property name="meta.media.0.stream.type">video</property>
    <property name="meta.media.0.stream.frame_rate">60</property>
    <property name="meta.media.0.stream.sample_aspect_ratio">0</property>
    <property name="meta.media.0.codec.width">1920</property>
    <property name="meta.media.0.codec.height">1080</property>
    <property name="meta.media.0.codec.rotate">0</property>
    <property name="meta.media.0.codec.pix_fmt">yuv420p</property>
    <property name="meta.media.0.codec.sample_aspect_ratio">0</property>
    <property name="meta.media.0.codec.colorspace">709</property>
    <property name="meta.media.0.codec.name">h264</property>
    <property name="meta.media.0.codec.long_name">H.264 / AVC / MPEG-4 AVC / MPEG-4 part 10</property>
    <property name="meta.media.0.codec.bit_rate">481468</property>
    <property name="meta.attr.0.stream.handler_name.markup">VideoHandler</property>
    <property name="meta.attr.0.stream.vendor_id.markup">[0][0][0][0]</property>
    <property name="meta.attr.major_brand.markup">isom</property>
    <property name="meta.attr.minor_version.markup">512</property>
    <property name="meta.attr.compatible_brands.markup">isomiso2avc1mp41</property>
    <property name="meta.attr.encoder.markup">Lavf61.1.100</property>
    <property name="meta.attr.comment.markup">Rendered with Manim Community v0.19.0</property>
    <property name="seekable">1</property>
    <property name="meta.media.sample_aspect_num">1</property>
    <property name="meta.media.sample_aspect_den">1</property>
    <property name="format">3</property>
    <property name="audio_index">-1</property>
    <property name="video_index">0</property>
    <property name="creation_time">2025-02-24T13:00:19</property>
    <property name="vstream">0</property>
    <property name="meta.media.frame_rate_num">60</property>
    <property name="meta.media.frame_rate_den">1</property>
    <property name="meta.media.colorspace">709</property>
    <property name="meta.media.color_trc">2</property>
    <property name="meta.media.has_b_frames">2</property>
    <property name="meta.media.width">1920</property>
    <property name="meta.media.height">1080</property>
    <property name="meta.media.aspect_ratio">1</property>
    <property name="meta.media.color_range">mpeg</property>
    <property name="shotcut:skipConvert">0</property>
    <property name="meta.media.top_field_first">0</property>
    <property name="meta.media.progressive">1</property>
    <property name="shotcut:hash">edb0360cac6adc7df47477b30474573a</property>
    <property name="ignore_points">0</property>
    <property name="shotcut:caption">TrigLesson.mp4</property>
    <property name="xml">was here</property>
  </chain>
  <chain id="chain4" out="00:11:07.383">
    <property name="length">00:11:07.400</property>
    <property name="eof">pause</property>
    <property name="resource">TrigLesson.mp4</property>
    <property name="mlt_service">avformat-novalidate</property>
    <property name="meta.media.nb_streams">1</property>
    <property name="meta.media.0.stream.type">video</property>
    <property name="meta.media.0.stream.frame_rate">60</property>
    <property name="meta.media.0.stream.sample_aspect_ratio">0</property>
    <property name="meta.media.0.codec.width">1920</property>
    <property name="meta.media.0.codec.height">1080</property>
    <property name="meta.media.0.codec.rotate">0</property>
    <property name="meta.media.0.codec.pix_fmt">yuv420p</property>
    <property name="meta.media.0.codec.sample_aspect_ratio">0</property>
    <property name="meta.media.0.codec.colorspace">709</property>
    <property name="meta.media.0.codec.name">h264</property>
    <property name="meta.media.0.codec.long_name">H.264 / AVC / MPEG-4 AVC / MPEG-4 part 10</property>
    <property name="meta.media.0.codec.bit_rate">481468</property>
    <property name="meta.attr.0.stream.handler_name.markup">VideoHandler</property>
    <property name="meta.attr.0.stream.vendor_id.markup">[0][0][0][0]</property>
    <property name="meta.attr.major_brand.markup">isom</property>
    <property name="meta.attr.minor_version.markup">512</property>
    <property name="meta.attr.compatible_brands.markup">isomiso2avc1mp41</property>
    <property name="meta.attr.encoder.markup">Lavf61.1.100</property>
    <property name="meta.attr.comment.markup">Rendered with Manim Community v0.19.0</property>
    <property name="seekable">1</property>
    <property name="meta.media.sample_aspect_num">1</property>
    <property name="meta.media.sample_aspect_den">1</property>
    <property name="format">3</property>
    <property name="audio_index">-1</property>
    <property name="video_index">0</property>
    <property name="creation_time">2025-02-24T13:00:19</property>
    <property name="vstream">0</property>
    <property name="meta.media.frame_rate_num">60</property>
    <property name="meta.media.frame_rate_den">1</property>
    <property name="meta.media.colorspace">709</property>
    <property name="meta.media.color_trc">2</property>
    <property name="meta.media.has_b_frames">2</property>
    <property name="meta.media.width">1920</property>
    <property name="meta.media.height">1080</property>
    <property name="meta.media.aspect_ratio">1</property>
    <property name="meta.media.color_range">mpeg</property>
    <property name="shotcut:skipConvert">0</property>
    <property name="meta.media.top_field_first">0</property>
    <property name="meta.media.progressive">1</property>
    <property name="shotcut:hash">edb0360cac6adc7df47477b30474573a</property>
    <property name="ignore_points">0</property>
    <property name="shotcut:caption">TrigLesson.mp4</property>
    <property name="xml">was here</property>
  </chain>
  <chain id="chain5" out="00:11:07.383">
    <property name="length">00:11:07.400</property>
    <property name="eof">pause</property>
    <property name="resource">TrigLesson.mp4</property>
    <property name="mlt_service">avformat-novalidate</property>
    <property name="meta.media.nb_streams">1</property>
    <property name="meta.media.0.stream.type">video</property>
    <property name="meta.media.0.stream.frame_rate">60</property>
    <property name="meta.media.0.stream.sample_aspect_ratio">0</property>
    <property name="meta.media.0.codec.width">1920</property>
    <property name="meta.media.0.codec.height">1080</property>
    <property name="meta.media.0.codec.rotate">0</property>
    <property name="meta.media.0.codec.pix_fmt">yuv420p</property>
    <property name="meta.media.0.codec.sample_aspect_ratio">0</property>
    <property name="meta.media.0.codec.colorspace">709</property>
    <property name="meta.media.0.codec.name">h264</property>
    <property name="meta.media.0.codec.long_name">H.264 / AVC / MPEG-4 AVC / MPEG-4 part 10</property>
    <property name="meta.media.0.codec.bit_rate">481468</property>
    <property name="meta.attr.0.stream.handler_name.markup">VideoHandler</property>
    <property name="meta.attr.0.stream.vendor_id.markup">[0][0][0][0]</property>
    <property name="meta.attr.major_brand.markup">isom</property>
    <property name="meta.attr.minor_version.markup">512</property>
    <property name="meta.attr.compatible_brands.markup">isomiso2avc1mp41</property>
    <property name="meta.attr.encoder.markup">Lavf61.1.100</property>
    <property name="meta.attr.comment.markup">Rendered with Manim Community v0.19.0</property>
    <property name="seekable">1</property>
    <property name="meta.media.sample_aspect_num">1</property>
    <property name="meta.media.sample_aspect_den">1</property>
    <property name="format">3</property>
    <property name="audio_index">-1</property>
    <property name="video_index">0</property>
    <property name="creation_time">2025-02-24T13:00:19</property>
    <property name="vstream">0</property>
    <property name="meta.media.frame_rate_num">60</property>
    <property name="meta.media.frame_rate_den">1</property>
    <property name="meta.media.colorspace">709</property>
    <property name="meta.media.color_trc">2</property>
    <property name="meta.media.has_b_frames">2</property>
    <property name="meta.media.width">1920</property>
    <property name="meta.media.height">1080</property>
    <property name="meta.media.aspect_ratio">1</property>
    <property name="meta.media.color_range">mpeg</property>
    <property name="shotcut:skipConvert">0</property>
    <property name="meta.media.top_field_first">0</property>
    <property name="meta.media.progressive">1</property>
    <property name="shotcut:hash">edb0360cac6adc7df47477b30474573a</property>
    <property name="ignore_points">0</property>
    <property name="shotcut:caption">TrigLesson.mp4</property>
    <property name="xml">was here</property>
  </chain>
  <chain id="chain6" out="00:11:07.383">
    <property name="length">00:11:07.400</property>
    <property name="eof">pause</property>
    <property name="resource">TrigLesson.mp4</property>
    <property name="mlt_service">avformat-novalidate</property>
    <property name="meta.media.nb_streams">1</property>
    <property name="meta.media.0.stream.type">video</property>
    <property name="meta.media.0.stream.frame_rate">60</property>
    <property name="meta.media.0.stream.sample_aspect_ratio">0</property>
    <property name="meta.media.0.codec.width">1920</property>
    <property name="meta.media.0.codec.height">1080</property>
    <property name="meta.media.0.codec.rotate">0</property>
    <property name="meta.media.0.codec.pix_fmt">yuv420p</property>
    <property name="meta.media.0.codec.sample_aspect_ratio">0</property>
    <property name="meta.media.0.codec.colorspace">709</property>
    <property name="meta.media.0.codec.name">h264</property>
    <property name="meta.media.0.codec.long_name">H.264 / AVC / MPEG-4 AVC / MPEG-4 part 10</property>
    <property name="meta.media.0.codec.bit_rate">481468</property>
    <property name="meta.attr.0.stream.handler_name.markup">VideoHandler</property>
    <property name="meta.attr.0.stream.vendor_id.markup">[0][0][0][0]</property>
    <property name="meta.attr.major_brand.markup">isom</property>
    <property name="meta.attr.minor_version.markup">512</property>
    <property name="meta.attr.compatible_brands.markup">isomiso2avc1mp41</property>
    <property name="meta.attr.encoder.markup">Lavf61.1.100</property>
    <property name="meta.attr.comment.markup">Rendered with Manim Community v0.19.0</property>
    <property name="seekable">1</property>
    <property name="meta.media.sample_aspect_num">1</property>
    <property name="meta.media.sample_aspect_den">1</property>
    <property name="format">3</property>
    <property name="audio_index">-1</property>
    <property name="video_index">0</property>
    <property name="creation_time">2025-02-24T13:00:19</property>
    <property name="vstream">0</property>
    <property name="meta.media.frame_rate_num">60</property>
    <property name="meta.media.frame_rate_den">1</property>
    <property name="meta.media.colorspace">709</property>
    <property name="meta.media.color_trc">2</property>
    <property name="meta.media.has_b_frames">2</property>
    <property name="meta.media.width">1920</property>
    <property name="meta.media.height">1080</property>
    <property name="meta.media.aspect_ratio">1</property>
    <property name="meta.media.color_range">mpeg</property>
    <property name="shotcut:skipConvert">0</property>
    <property name="meta.media.top_field_first">0</property>
    <property name="meta.media.progressive">1</property>
    <property name="shotcut:hash">edb0360cac6adc7df47477b30474573a</property>
    <property name="ignore_points">0</property>
    <property name="shotcut:caption">TrigLesson.mp4</property>
    <property name="xml">was here</property>
  </chain>
  <chain id="chain7" out="00:11:07.383">
    <property name="length">00:11:07.400</property>
    <property name="eof">pause</property>
    <property name="resource">TrigLesson.mp4</property>
    <property name="mlt_service">avformat-novalidate</property>
    <property name="meta.media.nb_streams">1</property>
    <property name="meta.media.0.stream.type">video</property>
    <property name="meta.media.0.stream.frame_rate">60</property>
    <property name="meta.media.0.stream.sample_aspect_ratio">0</property>
    <property name="meta.media.0.codec.width">1920</property>
    <property name="meta.media.0.codec.height">1080</property>
    <property name="meta.media.0.codec.rotate">0</property>
    <property name="meta.media.0.codec.pix_fmt">yuv420p</property>
    <property name="meta.media.0.codec.sample_aspect_ratio">0</property>
    <property name="meta.media.0.codec.colorspace">709</property>
    <property name="meta.media.0.codec.name">h264</property>
    <property name="meta.media.0.codec.long_name">H.264 / AVC / MPEG-4 AVC / MPEG-4 part 10</property>
    <property name="meta.media.0.codec.bit_rate">481468</property>
    <property name="meta.attr.0.stream.handler_name.markup">VideoHandler</property>
    <property name="meta.attr.0.stream.vendor_id.markup">[0][0][0][0]</property>
    <property name="meta.attr.major_brand.markup">isom</property>
    <property name="meta.attr.minor_version.markup">512</property>
    <property name="meta.attr.compatible_brands.markup">isomiso2avc1mp41</property>
    <property name="meta.attr.encoder.markup">Lavf61.1.100</property>
    <property name="meta.attr.comment.markup">Rendered with Manim Community v0.19.0</property>
    <property name="seekable">1</property>
    <property name="meta.media.sample_aspect_num">1</property>
    <property name="meta.media.sample_aspect_den">1</property>
    <property name="format">3</property>
    <property name="audio_index">-1</property>
    <property name="video_index">0</property>
    <property name="creation_time">2025-02-24T13:00:19</property>
    <property name="vstream">0</property>
    <property name="meta.media.frame_rate_num">60</property>
    <property name="meta.media.frame_rate_den">1</property>
    <property name="meta.media.colorspace">709</property>
    <property name="meta.media.color_trc">2</property>
    <property name="meta.media.has_b_frames">2</property>
    <property name="meta.media.width">1920</property>
    <property name="meta.media.height">1080</property>
    <property name="meta.media.aspect_ratio">1</property>
    <property name="meta.media.color_range">mpeg</property>
    <property name="shotcut:skipConvert">0</property>
    <property name="meta.media.top_field_first">0</property>
    <property name="meta.media.progressive">1</property>
    <property name="shotcut:hash">edb0360cac6adc7df47477b30474573a</property>
    <property name="ignore_points">0</property>
    <property name="shotcut:caption">TrigLesson.mp4</property>
    <property name="xml">was here</property>
  </chain>
  <chain id="chain8" out="00:11:07.383">
    <property name="length">00:11:07.400</property>
    <property name="eof">pause</property>
    <property name="resource">TrigLesson.mp4</property>
    <property name="mlt_service">avformat-novalidate</property>
    <property name="meta.media.nb_streams">1</property>
    <property name="meta.media.0.stream.type">video</property>
    <property name="meta.media.0.stream.frame_rate">60</property>
    <property name="meta.media.0.stream.sample_aspect_ratio">0</property>
    <property name="meta.media.0.codec.width">1920</property>
    <property name="meta.media.0.codec.height">1080</property>
    <property name="meta.media.0.codec.rotate">0</property>
    <property name="meta.media.0.codec.pix_fmt">yuv420p</property>
    <property name="meta.media.0.codec.sample_aspect_ratio">0</property>
    <property name="meta.media.0.codec.colorspace">709</property>
    <property name="meta.media.0.codec.name">h264</property>
    <property name="meta.media.0.codec.long_name">H.264 / AVC / MPEG-4 AVC / MPEG-4 part 10</property>
    <property name="meta.media.0.codec.bit_rate">481468</property>
    <property name="meta.attr.0.stream.handler_name.markup">VideoHandler</property>
    <property name="meta.attr.0.stream.vendor_id.markup">[0][0][0][0]</property>
    <property name="meta.attr.major_brand.markup">isom</property>
    <property name="meta.attr.minor_version.markup">512</property>
    <property name="meta.attr.compatible_brands.markup">isomiso2avc1mp41</property>
    <property name="meta.attr.encoder.markup">Lavf61.1.100</property>
    <property name="meta.attr.comment.markup">Rendered with Manim Community v0.19.0</property>
    <property name="seekable">1</property>
    <property name="meta.media.sample_aspect_num">1</property>
    <property name="meta.media.sample_aspect_den">1</property>
    <property name="format">3</property>
    <property name="audio_index">-1</property>
    <property name="video_index">0</property>
    <property name="creation_time">2025-02-24T13:00:19</property>
    <property name="vstream">0</property>
    <property name="meta.media.frame_rate_num">60</property>
    <property name="meta.media.frame_rate_den">1</property>
    <property name="meta.media.colorspace">709</property>
    <property name="meta.media.color_trc">2</property>
    <property name="meta.media.has_b_frames">2</property>
    <property name="meta.media.width">1920</property>
    <property name="meta.media.height">1080</property>
    <property name="meta.media.aspect_ratio">1</property>
    <property name="meta.media.color_range">mpeg</property>
    <property name="shotcut:skipConvert">0</property>
    <property name="meta.media.top_field_first">0</property>
    <property name="meta.media.progressive">1</property>
    <property name="shotcut:hash">edb0360cac6adc7df47477b30474573a</property>
    <property name="ignore_points">0</property>
    <property name="shotcut:caption">TrigLesson.mp4</property>
    <property name="xml">was here</property>
  </chain>
  <chain id="chain9" out="00:11:07.383">
    <property name="length">00:11:07.400</property>
    <property name="eof">pause</property>
    <property name="resource">TrigLesson.mp4</property>
    <property name="mlt_service">avformat-novalidate</property>
    <property name="meta.media.nb_streams">1</property>
    <property name="meta.media.0.stream.type">video</property>
    <property name="meta.media.0.stream.frame_rate">60</property>
    <property name="meta.media.0.stream.sample_aspect_ratio">0</property>
    <property name="meta.media.0.codec.width">1920</property>
    <property name="meta.media.0.codec.height">1080</property>
    <property name="meta.media.0.codec.rotate">0</property>
    <property name="meta.media.0.codec.pix_fmt">yuv420p</property>
    <property name="meta.media.0.codec.sample_aspect_ratio">0</property>
    <property name="meta.media.0.codec.colorspace">709</property>
    <property name="meta.media.0.codec.name">h264</property>
    <property name="meta.media.0.codec.long_name">H.264 / AVC / MPEG-4 AVC / MPEG-4 part 10</property>
    <property name="meta.media.0.codec.bit_rate">481468</property>
    <property name="meta.attr.0.stream.handler_name.markup">VideoHandler</property>
    <property name="meta.attr.0.stream.vendor_id.markup">[0][0][0][0]</property>
    <property name="meta.attr.major_brand.markup">isom</property>
    <property name="meta.attr.minor_version.markup">512</property>
    <property name="meta.attr.compatible_brands.markup">isomiso2avc1mp41</property>
    <property name="meta.attr.encoder.markup">Lavf61.1.100</property>
    <property name="meta.attr.comment.markup">Rendered with Manim Community v0.19.0</property>
    <property name="seekable">1</property>
    <property name="meta.media.sample_aspect_num">1</property>
    <property name="meta.media.sample_aspect_den">1</property>
    <property name="format">3</property>
    <property name="audio_index">-1</property>
    <property name="video_index">0</property>
    <property name="creation_time">2025-02-24T13:00:19</property>
    <property name="vstream">0</property>
    <property name="meta.media.frame_rate_num">60</property>
    <property name="meta.media.frame_rate_den">1</property>
    <property name="meta.media.colorspace">709</property>
    <property name="meta.media.color_trc">2</property>
    <property name="meta.media.has_b_frames">2</property>
    <property name="meta.media.width">1920</property>
    <property name="meta.media.height">1080</property>
    <property name="meta.media.aspect_ratio">1</property>
    <property name="meta.media.color_range">mpeg</property>
    <property name="shotcut:skipConvert">0</property>
    <property name="meta.media.top_field_first">0</property>
    <property name="meta.media.progressive">1</property>
    <property name="shotcut:hash">edb0360cac6adc7df47477b30474573a</property>
    <property name="ignore_points">0</property>
    <property name="shotcut:caption">TrigLesson.mp4</property>
    <property name="xml">was here</property>
  </chain>
  <chain id="chain10" out="00:11:07.383">
    <property name="length">00:11:07.400</property>
    <property name="eof">pause</property>
    <property name="resource">TrigLesson.mp4</property>
    <property name="mlt_service">avformat-novalidate</property>
    <property name="meta.media.nb_streams">1</property>
    <property name="meta.media.0.stream.type">video</property>
    <property name="meta.media.0.stream.frame_rate">60</property>
    <property name="meta.media.0.stream.sample_aspect_ratio">0</property>
    <property name="meta.media.0.codec.width">1920</property>
    <property name="meta.media.0.codec.height">1080</property>
    <property name="meta.media.0.codec.rotate">0</property>
    <property name="meta.media.0.codec.pix_fmt">yuv420p</property>
    <property name="meta.media.0.codec.sample_aspect_ratio">0</property>
    <property name="meta.media.0.codec.colorspace">709</property>
    <property name="meta.media.0.codec.name">h264</property>
    <property name="meta.media.0.codec.long_name">H.264 / AVC / MPEG-4 AVC / MPEG-4 part 10</property>
    <property name="meta.media.0.codec.bit_rate">481468</property>
    <property name="meta.attr.0.stream.handler_name.markup">VideoHandler</property>
    <property name="meta.attr.0.stream.vendor_id.markup">[0][0][0][0]</property>
    <property name="meta.attr.major_brand.markup">isom</property>
    <property name="meta.attr.minor_version.markup">512</property>
    <property name="meta.attr.compatible_brands.markup">isomiso2avc1mp41</property>
    <property name="meta.attr.encoder.markup">Lavf61.1.100</property>
    <property name="meta.attr.comment.markup">Rendered with Manim Community v0.19.0</property>
    <property name="seekable">1</property>
    <property name="meta.media.sample_aspect_num">1</property>
    <property name="meta.media.sample_aspect_den">1</property>
    <property name="format">3</property>
    <property name="audio_index">-1</property>
    <property name="video_index">0</property>
    <property name="creation_time">2025-02-24T13:00:19</property>
    <property name="vstream">0</property>
    <property name="meta.media.frame_rate_num">60</property>
    <property name="meta.media.frame_rate_den">1</property>
    <property name="meta.media.colorspace">709</property>
    <property name="meta.media.color_trc">2</property>
    <property name="meta.media.has_b_frames">2</property>
    <property name="meta.media.width">1920</property>
    <property name="meta.media.height">1080</property>
    <property name="meta.media.aspect_ratio">1</property>
    <property name="meta.media.color_range">mpeg</property>
    <property name="shotcut:skipConvert">0</property>
    <property name="meta.media.top_field_first">0</property>
    <property name="meta.media.progressive">1</property>
    <property name="shotcut:hash">edb0360cac6adc7df47477b30474573a</property>
    <property name="ignore_points">0</property>
    <property name="shotcut:caption">TrigLesson.mp4</property>
    <property name="xml">was here</property>
  </chain>
  <chain id="chain11" out="00:11:07.383">
    <property name="length">00:11:07.400</property>
    <property name="eof">pause</property>
    <property name="resource">TrigLesson.mp4</property>
    <property name="mlt_service">avformat-novalidate</property>
    <property name="meta.media.nb_streams">1</property>
    <property name="meta.media.0.stream.type">video</property>
    <property name="meta.media.0.stream.frame_rate">60</property>
    <property name="meta.media.0.stream.sample_aspect_ratio">0</property>
    <property name="meta.media.0.codec.width">1920</property>
    <property name="meta.media.0.codec.height">1080</property>
    <property name="meta.media.0.codec.rotate">0</property>
    <property name="meta.media.0.codec.pix_fmt">yuv420p</property>
    <property name="meta.media.0.codec.sample_aspect_ratio">0</property>
    <property name="meta.media.0.codec.colorspace">709</property>
    <property name="meta.media.0.codec.name">h264</property>
    <property name="meta.media.0.codec.long_name">H.264 / AVC / MPEG-4 AVC / MPEG-4 part 10</property>
    <property name="meta.media.0.codec.bit_rate">481468</property>
    <property name="meta.attr.0.stream.handler_name.markup">VideoHandler</property>
    <property name="meta.attr.0.stream.vendor_id.markup">[0][0][0][0]</property>
    <property name="meta.attr.major_brand.markup">isom</property>
    <property name="meta.attr.minor_version.markup">512</property>
    <property name="meta.attr.compatible_brands.markup">isomiso2avc1mp41</property>
    <property name="meta.attr.encoder.markup">Lavf61.1.100</property>
    <property name="meta.attr.comment.markup">Rendered with Manim Community v0.19.0</property>
    <property name="seekable">1</property>
    <property name="meta.media.sample_aspect_num">1</property>
    <property name="meta.media.sample_aspect_den">1</property>
    <property name="format">3</property>
    <property name="audio_index">-1</property>
    <property name="video_index">0</property>
    <property name="creation_time">2025-02-24T13:00:19</property>
    <property name="vstream">0</property>
    <property name="meta.media.frame_rate_num">60</property>
    <property name="meta.media.frame_rate_den">1</property>
    <property name="meta.media.colorspace">709</property>
    <property name="meta.media.color_trc">2</property>
    <property name="meta.media.has_b_frames">2</property>
    <property name="meta.media.width">1920</property>
    <property name="meta.media.height">1080</property>
    <property name="meta.media.aspect_ratio">1</property>
    <property name="meta.media.color_range">mpeg</property>
    <property name="shotcut:skipConvert">0</property>
    <property name="meta.media.top_field_first">0</property>
    <property name="meta.media.progressive">1</property>
    <property name="shotcut:hash">edb0360cac6adc7df47477b30474573a</property>
    <property name="ignore_points">0</property>
    <property name="shotcut:caption">TrigLesson.mp4</property>
    <property name="xml">was here</property>
  </chain>
  <chain id="chain12" out="00:11:07.383">
    <property name="length">00:11:07.400</property>
    <property name="eof">pause</property>
    <property name="resource">TrigLesson.mp4</property>
    <property name="mlt_service">avformat-novalidate</property>
    <property name="meta.media.nb_streams">1</property>
    <property name="meta.media.0.stream.type">video</property>
    <property name="meta.media.0.stream.frame_rate">60</property>
    <property name="meta.media.0.stream.sample_aspect_ratio">0</property>
    <property name="meta.media.0.codec.width">1920</property>
    <property name="meta.media.0.codec.height">1080</property>
    <property name="meta.media.0.codec.rotate">0</property>
    <property name="meta.media.0.codec.pix_fmt">yuv420p</property>
    <property name="meta.media.0.codec.sample_aspect_ratio">0</property>
    <property name="meta.media.0.codec.colorspace">709</property>
    <property name="meta.media.0.codec.name">h264</property>
    <property name="meta.media.0.codec.long_name">H.264 / AVC / MPEG-4 AVC / MPEG-4 part 10</property>
    <property name="meta.media.0.codec.bit_rate">481468</property>
    <property name="meta.attr.0.stream.handler_name.markup">VideoHandler</property>
    <property name="meta.attr.0.stream.vendor_id.markup">[0][0][0][0]</property>
    <property name="meta.attr.major_brand.markup">isom</property>
    <property name="meta.attr.minor_version.markup">512</property>
    <property name="meta.attr.compatible_brands.markup">isomiso2avc1mp41</property>
    <property name="meta.attr.encoder.markup">Lavf61.1.100</property>
    <property name="meta.attr.comment.markup">Rendered with Manim Community v0.19.0</property>
    <property name="seekable">1</property>
    <property name="meta.media.sample_aspect_num">1</property>
    <property name="meta.media.sample_aspect_den">1</property>
    <property name="format">3</property>
    <property name="audio_index">-1</property>
    <property name="video_index">0</property>
    <property name="creation_time">2025-02-24T13:00:19</property>
    <property name="vstream">0</property>
    <property name="meta.media.frame_rate_num">60</property>
    <property name="meta.media.frame_rate_den">1</property>
    <property name="meta.media.colorspace">709</property>
    <property name="meta.media.color_trc">2</property>
    <property name="meta.media.has_b_frames">2</property>
    <property name="meta.media.width">1920</property>
    <property name="meta.media.height">1080</property>
    <property name="meta.media.aspect_ratio">1</property>
    <property name="meta.media.color_range">mpeg</property>
    <property name="shotcut:skipConvert">0</property>
    <property name="meta.media.top_field_first">0</property>
    <property name="meta.media.progressive">1</property>
    <property name="shotcut:hash">edb0360cac6adc7df47477b30474573a</property>
    <property name="ignore_points">0</property>
    <property name="shotcut:caption">TrigLesson.mp4</property>
    <property name="xml">was here</property>
  </chain>
  <playlist id="playlist0">
    <property name="shotcut:video">1</property>
    <property name="shotcut:name">V1</property>
    <property name="shotcut:lock">1</property>
    <entry producer="chain1" in="00:00:00.000" out="00:00:18.983"/>
    <entry producer="chain2" in="00:00:19.000" out="00:00:19.400"/>
    <entry producer="chain3" in="00:00:19.417" out="00:08:28.167"/>
    <entry producer="chain4" in="00:08:28.183" out="00:08:28.833"/>
    <entry producer="chain5" in="00:08:28.183" out="00:08:28.850"/>
    <entry producer="chain6" in="00:08:28.183" out="00:08:28.850"/>
    <entry producer="chain7" in="00:08:28.183" out="00:08:28.850"/>
    <entry producer="chain8" in="00:08:28.183" out="00:08:28.850"/>
    <entry producer="chain9" in="00:08:28.183" out="00:08:28.733"/>
    <blank length="00:00:00.017"/>
    <entry producer="chain10" in="00:08:28.867" out="00:08:30.967"/>
    <entry producer="chain11" in="00:08:30.900" out="00:08:36.400"/>
    <entry producer="chain12" in="00:08:36.417" out="00:11:07.383"/>
  </playlist>
  <chain id="chain13" out="00:02:57.083">
    <property name="length">00:02:57.100</property>
    <property name="eof">pause</property>
    <property name="resource">voiceover_1-6_redo.ogg</property>
    <property name="mlt_service">avformat-novalidate</property>
    <property name="meta.media.nb_streams">1</property>
    <property name="meta.media.0.stream.type">audio</property>
    <property name="meta.media.0.codec.sample_fmt">fltp</property>
    <property name="meta.media.0.codec.sample_rate">44100</property>
    <property name="meta.media.0.codec.channels">2</property>
    <property name="meta.media.0.codec.layout">stereo</property>
    <property name="meta.media.0.codec.name">vorbis</property>
    <property name="meta.media.0.codec.long_name">Vorbis</property>
    <property name="meta.media.0.codec.bit_rate">499821</property>
    <property name="seekable">1</property>
    <property name="audio_index">0</property>
    <property name="video_index">-1</property>
    <property name="creation_time">2025-02-26T18:29:06</property>
    <property name="astream">0</property>
    <property name="shotcut:skipConvert">0</property>
    <property name="shotcut:hash">fb6c2121ac06dbf557350e48af7e7f72</property>
    <property name="ignore_points">0</property>
    <property name="shotcut:caption">voiceover_1-6_redo.ogg</property>
    <property name="xml">was here</property>
  </chain>
  <chain id="chain14" out="00:02:57.083">
    <property name="length">00:02:57.100</property>
    <property name="eof">pause</property>
    <property name="resource">voiceover_1-6_redo.ogg</property>
    <property name="mlt_service">avformat-novalidate</property>
    <property name="meta.media.nb_streams">1</property>
    <property name="meta.media.0.stream.type">audio</property>
    <property name="meta.media.0.codec.sample_fmt">fltp</property>
    <property name="meta.media.0.codec.sample_rate">44100</property>
    <property name="meta.media.0.codec.channels">2</property>
    <property name="meta.media.0.codec.layout">stereo</property>
    <property name="meta.media.0.codec.name">vorbis</property>
    <property name="meta.media.0.codec.long_name">Vorbis</property>
    <property name="meta.media.0.codec.bit_rate">499821</property>
    <property name="seekable">1</property>
    <property name="audio_index">0</property>
    <property name="video_index">-1</property>
    <property name="creation_time">2025-02-26T18:29:06</property>
    <property name="astream">0</property>
    <property name="shotcut:skipConvert">0</property>
    <property name="shotcut:hash">fb6c2121ac06dbf557350e48af7e7f72</property>
    <property name="ignore_points">0</property>
    <property name="shotcut:caption">voiceover_1-6_redo.ogg</property>
    <property name="xml">was here</property>
  </chain>
  <chain id="chain15" out="00:02:57.083">
    <property name="length">00:02:57.100</property>
    <property name="eof">pause</property>
    <property name="resource">voiceover_1-6_redo.ogg</property>
    <property name="mlt_service">avformat-novalidate</property>
    <property name="meta.media.nb_streams">1</property>
    <property name="meta.media.0.stream.type">audio</property>
    <property name="meta.media.0.codec.sample_fmt">fltp</property>
    <property name="meta.media.0.codec.sample_rate">44100</property>
    <property name="meta.media.0.codec.channels">2</property>
    <property name="meta.media.0.codec.layout">stereo</property>
    <property name="meta.media.0.codec.name">vorbis</property>
    <property name="meta.media.0.codec.long_name">Vorbis</property>
    <property name="meta.media.0.codec.bit_rate">499821</property>
    <property name="seekable">1</property>
    <property name="audio_index">0</property>
    <property name="video_index">-1</property>
    <property name="creation_time">2025-02-26T18:29:06</property>
    <property name="astream">0</property>
    <property name="shotcut:skipConvert">0</property>
    <property name="shotcut:hash">fb6c2121ac06dbf557350e48af7e7f72</property>
    <property name="ignore_points">0</property>
    <property name="shotcut:caption">voiceover_1-6_redo.ogg</property>
    <property name="xml">was here</property>
    <filter id="filter1" in="00:00:15.700" out="00:00:21.733">
      <property name="window">75</property>
      <property name="max_gain">20dB</property>
      <property name="level">00:00:05.800=0;00:00:06.033=-60</property>
      <property name="mlt_service">volume</property>
      <property name="shotcut:filter">fadeOutVolume</property>
      <property name="shotcut:animOut">00:00:00.250</property>
    </filter>
  </chain>
  <chain id="chain16" out="00:02:57.083">
    <property name="length">00:02:57.100</property>
    <property name="eof">pause</property>
    <property name="resource">voiceover_1-6_redo.ogg</property>
    <property name="mlt_service">avformat-novalidate</property>
    <property name="meta.media.nb_streams">1</property>
    <property name="meta.media.0.stream.type">audio</property>
    <property name="meta.media.0.codec.sample_fmt">fltp</property>
    <property name="meta.media.0.codec.sample_rate">44100</property>
    <property name="meta.media.0.codec.channels">2</property>
    <property name="meta.media.0.codec.layout">stereo</property>
    <property name="meta.media.0.codec.name">vorbis</property>
    <property name="meta.media.0.codec.long_name">Vorbis</property>
    <property name="meta.media.0.codec.bit_rate">499821</property>
    <property name="seekable">1</property>
    <property name="audio_index">0</property>
    <property name="video_index">-1</property>
    <property name="creation_time">2025-02-26T18:29:06</property>
    <property name="astream">0</property>
    <property name="shotcut:skipConvert">0</property>
    <property name="shotcut:hash">fb6c2121ac06dbf557350e48af7e7f72</property>
    <property name="ignore_points">0</property>
    <property name="shotcut:caption">voiceover_1-6_redo.ogg</property>
    <property name="xml">was here</property>
  </chain>
  <chain id="chain17" out="00:02:57.083">
    <property name="length">00:02:57.100</property>
    <property name="eof">pause</property>
    <property name="resource">voiceover_1-6_redo.ogg</property>
    <property name="mlt_service">avformat-novalidate</property>
    <property name="meta.media.nb_streams">1</property>
    <property name="meta.media.0.stream.type">audio</property>
    <property name="meta.media.0.codec.sample_fmt">fltp</property>
    <property name="meta.media.0.codec.sample_rate">44100</property>
    <property name="meta.media.0.codec.channels">2</property>
    <property name="meta.media.0.codec.layout">stereo</property>
    <property name="meta.media.0.codec.name">vorbis</property>
    <property name="meta.media.0.codec.long_name">Vorbis</property>
    <property name="meta.media.0.codec.bit_rate">499821</property>
    <property name="seekable">1</property>
    <property name="audio_index">0</property>
    <property name="video_index">-1</property>
    <property name="creation_time">2025-02-26T18:29:06</property>
    <property name="astream">0</property>
    <property name="shotcut:skipConvert">0</property>
    <property name="shotcut:hash">fb6c2121ac06dbf557350e48af7e7f72</property>
    <property name="ignore_points">0</property>
    <property name="shotcut:caption">voiceover_1-6_redo.ogg</property>
    <property name="xml">was here</property>
    <filter id="filter2" in="00:00:38.250" out="00:00:46.067">
      <property name="window">75</property>
      <property name="max_gain">20dB</property>
      <property name="level">00:00:07.583=0;00:00:07.817=-60</property>
      <property name="mlt_service">volume</property>
      <property name="shotcut:filter">fadeOutVolume</property>
      <property name="shotcut:animOut">00:00:00.250</property>
    </filter>
  </chain>
  <chain id="chain18" out="00:02:57.083">
    <property name="length">00:02:57.100</property>
    <property name="eof">pause</property>
    <property name="resource">voiceover_1-6_redo.ogg</property>
    <property name="mlt_service">avformat-novalidate</property>
    <property name="meta.media.nb_streams">1</property>
    <property name="meta.media.0.stream.type">audio</property>
    <property name="meta.media.0.codec.sample_fmt">fltp</property>
    <property name="meta.media.0.codec.sample_rate">44100</property>
    <property name="meta.media.0.codec.channels">2</property>
    <property name="meta.media.0.codec.layout">stereo</property>
    <property name="meta.media.0.codec.name">vorbis</property>
    <property name="meta.media.0.codec.long_name">Vorbis</property>
    <property name="meta.media.0.codec.bit_rate">499821</property>
    <property name="seekable">1</property>
    <property name="audio_index">0</property>
    <property name="video_index">-1</property>
    <property name="creation_time">2025-02-26T18:29:06</property>
    <property name="astream">0</property>
    <property name="shotcut:skipConvert">0</property>
    <property name="shotcut:hash">fb6c2121ac06dbf557350e48af7e7f72</property>
    <property name="ignore_points">0</property>
    <property name="shotcut:caption">voiceover_1-6_redo.ogg</property>
    <property name="xml">was here</property>
  </chain>
  <chain id="chain19" out="00:02:57.083">
    <property name="length">00:02:57.100</property>
    <property name="eof">pause</property>
    <property name="resource">voiceover_1-6_redo.ogg</property>
    <property name="mlt_service">avformat-novalidate</property>
    <property name="meta.media.nb_streams">1</property>
    <property name="meta.media.0.stream.type">audio</property>
    <property name="meta.media.0.codec.sample_fmt">fltp</property>
    <property name="meta.media.0.codec.sample_rate">44100</property>
    <property name="meta.media.0.codec.channels">2</property>
    <property name="meta.media.0.codec.layout">stereo</property>
    <property name="meta.media.0.codec.name">vorbis</property>
    <property name="meta.media.0.codec.long_name">Vorbis</property>
    <property name="meta.media.0.codec.bit_rate">499821</property>
    <property name="seekable">1</property>
    <property name="audio_index">0</property>
    <property name="video_index">-1</property>
    <property name="creation_time">2025-02-26T18:29:06</property>
    <property name="astream">0</property>
    <property name="shotcut:skipConvert">0</property>
    <property name="shotcut:hash">fb6c2121ac06dbf557350e48af7e7f72</property>
    <property name="ignore_points">0</property>
    <property name="shotcut:caption">voiceover_1-6_redo.ogg</property>
    <property name="xml">was here</property>
  </chain>
  <chain id="chain20" out="00:02:57.083">
    <property name="length">00:02:57.100</property>
    <property name="eof">pause</property>
    <property name="resource">voiceover_1-6_redo.ogg</property>
    <property name="mlt_service">avformat-novalidate</property>
    <property name="meta.media.nb_streams">1</property>
    <property name="meta.media.0.stream.type">audio</property>
    <property name="meta.media.0.codec.sample_fmt">fltp</property>
    <property name="meta.media.0.codec.sample_rate">44100</property>
    <property name="meta.media.0.codec.channels">2</property>
    <property name="meta.media.0.codec.layout">stereo</property>
    <property name="meta.media.0.codec.name">vorbis</property>
    <property name="meta.media.0.codec.long_name">Vorbis</property>
    <property name="meta.media.0.codec.bit_rate">499821</property>
    <property name="seekable">1</property>
    <property name="audio_index">0</property>
    <property name="video_index">-1</property>
    <property name="creation_time">2025-02-26T18:29:06</property>
    <property name="astream">0</property>
    <property name="shotcut:skipConvert">0</property>
    <property name="shotcut:hash">fb6c2121ac06dbf557350e48af7e7f72</property>
    <property name="ignore_points">0</property>
    <property name="shotcut:caption">voiceover_1-6_redo.ogg</property>
    <property name="xml">was here</property>
  </chain>
  <chain id="chain21" out="00:02:57.083">
    <property name="length">00:02:57.100</property>
    <property name="eof">pause</property>
    <property name="resource">voiceover_1-6_redo.ogg</property>
    <property name="mlt_service">avformat-novalidate</property>
    <property name="meta.media.nb_streams">1</property>
    <property name="meta.media.0.stream.type">audio</property>
    <property name="meta.media.0.codec.sample_fmt">fltp</property>
    <property name="meta.media.0.codec.sample_rate">44100</property>
    <property name="meta.media.0.codec.channels">2</property>
    <property name="meta.media.0.codec.layout">stereo</property>
    <property name="meta.media.0.codec.name">vorbis</property>
    <property name="meta.media.0.codec.long_name">Vorbis</property>
    <property name="meta.media.0.codec.bit_rate">499821</property>
    <property name="seekable">1</property>
    <property name="audio_index">0</property>
    <property name="video_index">-1</property>
    <property name="creation_time">2025-02-26T18:29:06</property>
    <property name="astream">0</property>
    <property name="shotcut:skipConvert">0</property>
    <property name="shotcut:hash">fb6c2121ac06dbf557350e48af7e7f72</property>
    <property name="ignore_points">0</property>
    <property name="shotcut:caption">voiceover_1-6_redo.ogg</property>
    <property name="xml">was here</property>
  </chain>
  <chain id="chain22" out="00:02:57.083">
    <property name="length">00:02:57.100</property>
    <property name="eof">pause</property>
    <property name="resource">voiceover_1-6_redo.ogg</property>
    <property name="mlt_service">avformat-novalidate</property>
    <property name="meta.media.nb_streams">1</property>
    <property name="meta.media.0.stream.type">audio</property>
    <property name="meta.media.0.codec.sample_fmt">fltp</property>
    <property name="meta.media.0.codec.sample_rate">44100</property>
    <property name="meta.media.0.codec.channels">2</property>
    <property name="meta.media.0.codec.layout">stereo</property>
    <property name="meta.media.0.codec.name">vorbis</property>
    <property name="meta.media.0.codec.long_name">Vorbis</property>
    <property name="meta.media.0.codec.bit_rate">499821</property>
    <property name="seekable">1</property>
    <property name="audio_index">0</property>
    <property name="video_index">-1</property>
    <property name="creation_time">2025-02-26T18:29:06</property>
    <property name="astream">0</property>
    <property name="shotcut:skipConvert">0</property>
    <property name="shotcut:hash">fb6c2121ac06dbf557350e48af7e7f72</property>
    <property name="ignore_points">0</property>
    <property name="shotcut:caption">voiceover_1-6_redo.ogg</property>
    <property name="xml">was here</property>
  </chain>
  <chain id="chain23" out="00:02:57.083">
    <property name="length">00:02:57.100</property>
    <property name="eof">pause</property>
    <property name="resource">voiceover_1-6_redo.ogg</property>
    <property name="mlt_service">avformat-novalidate</property>
    <property name="meta.media.nb_streams">1</property>
    <property name="meta.media.0.stream.type">audio</property>
    <property name="meta.media.0.codec.sample_fmt">fltp</property>
    <property name="meta.media.0.codec.sample_rate">44100</property>
    <property name="meta.media.0.codec.channels">2</property>
    <property name="meta.media.0.codec.layout">stereo</property>
    <property name="meta.media.0.codec.name">vorbis</property>
    <property name="meta.media.0.codec.long_name">Vorbis</property>
    <property name="meta.media.0.codec.bit_rate">499821</property>
    <property name="seekable">1</property>
    <property name="audio_index">0</property>
    <property name="video_index">-1</property>
    <property name="creation_time">2025-02-26T18:29:06</property>
    <property name="astream">0</property>
    <property name="shotcut:skipConvert">0</property>
    <property name="shotcut:hash">fb6c2121ac06dbf557350e48af7e7f72</property>
    <property name="ignore_points">0</property>
    <property name="shotcut:caption">voiceover_1-6_redo.ogg</property>
    <property name="xml">was here</property>
  </chain>
  <chain id="chain24" out="00:02:57.083">
    <property name="length">00:02:57.100</property>
    <property name="eof">pause</property>
    <property name="resource">voiceover_1-6_redo.ogg</property>
    <property name="mlt_service">avformat-novalidate</property>
    <property name="meta.media.nb_streams">1</property>
    <property name="meta.media.0.stream.type">audio</property>
    <property name="meta.media.0.codec.sample_fmt">fltp</property>
    <property name="meta.media.0.codec.sample_rate">44100</property>
    <property name="meta.media.0.codec.channels">2</property>
    <property name="meta.media.0.codec.layout">stereo</property>
    <property name="meta.media.0.codec.name">vorbis</property>
    <property name="meta.media.0.codec.long_name">Vorbis</property>
    <property name="meta.media.0.codec.bit_rate">499821</property>
    <property name="seekable">1</property>
    <property name="audio_index">0</property>
    <property name="video_index">-1</property>
    <property name="creation_time">2025-02-26T18:29:06</property>
    <property name="astream">0</property>
    <property name="shotcut:skipConvert">0</property>
    <property name="shotcut:hash">fb6c2121ac06dbf557350e48af7e7f72</property>
    <property name="ignore_points">0</property>
    <property name="shotcut:caption">voiceover_1-6_redo.ogg</property>
    <property name="xml">was here</property>
  </chain>
  <chain id="chain25" out="00:02:57.083">
    <property name="length">00:02:57.100</property>
    <property name="eof">pause</property>
    <property name="resource">voiceover_1-6_redo.ogg</property>
    <property name="mlt_service">avformat-novalidate</property>
    <property name="meta.media.nb_streams">1</property>
    <property name="meta.media.0.stream.type">audio</property>
    <property name="meta.media.0.codec.sample_fmt">fltp</property>
    <property name="meta.media.0.codec.sample_rate">44100</property>
    <property name="meta.media.0.codec.channels">2</property>
    <property name="meta.media.0.codec.layout">stereo</property>
    <property name="meta.media.0.codec.name">vorbis</property>
    <property name="meta.media.0.codec.long_name">Vorbis</property>
    <property name="meta.media.0.codec.bit_rate">499821</property>
    <property name="seekable">1</property>
    <property name="audio_index">0</property>
    <property name="video_index">-1</property>
    <property name="creation_time">2025-02-26T18:29:06</property>
    <property name="astream">0</property>
    <property name="shotcut:skipConvert">0</property>
    <property name="shotcut:hash">fb6c2121ac06dbf557350e48af7e7f72</property>
    <property name="ignore_points">0</property>
    <property name="shotcut:caption">voiceover_1-6_redo.ogg</property>
    <property name="xml">was here</property>
  </chain>
  <chain id="chain26" out="00:02:57.083">
    <property name="length">00:02:57.100</property>
    <property name="eof">pause</property>
    <property name="resource">voiceover_1-6_redo.ogg</property>
    <property name="mlt_service">avformat-novalidate</property>
    <property name="meta.media.nb_streams">1</property>
    <property name="meta.media.0.stream.type">audio</property>
    <property name="meta.media.0.codec.sample_fmt">fltp</property>
    <property name="meta.media.0.codec.sample_rate">44100</property>
    <property name="meta.media.0.codec.channels">2</property>
    <property name="meta.media.0.codec.layout">stereo</property>
    <property name="meta.media.0.codec.name">vorbis</property>
    <property name="meta.media.0.codec.long_name">Vorbis</property>
    <property name="meta.media.0.codec.bit_rate">499821</property>
    <property name="seekable">1</property>
    <property name="audio_index">0</property>
    <property name="video_index">-1</property>
    <property name="creation_time">2025-02-26T18:29:06</property>
    <property name="astream">0</property>
    <property name="shotcut:skipConvert">0</property>
    <property name="shotcut:hash">fb6c2121ac06dbf557350e48af7e7f72</property>
    <property name="ignore_points">0</property>
    <property name="shotcut:caption">voiceover_1-6_redo.ogg</property>
    <property name="xml">was here</property>
  </chain>
  <chain id="chain27" out="00:02:57.083">
    <property name="length">00:02:57.100</property>
    <property name="eof">pause</property>
    <property name="resource">voiceover_1-6_redo.ogg</property>
    <property name="mlt_service">avformat-novalidate</property>
    <property name="meta.media.nb_streams">1</property>
    <property name="meta.media.0.stream.type">audio</property>
    <property name="meta.media.0.codec.sample_fmt">fltp</property>
    <property name="meta.media.0.codec.sample_rate">44100</property>
    <property name="meta.media.0.codec.channels">2</property>
    <property name="meta.media.0.codec.layout">stereo</property>
    <property name="meta.media.0.codec.name">vorbis</property>
    <property name="meta.media.0.codec.long_name">Vorbis</property>
    <property name="meta.media.0.codec.bit_rate">499821</property>
    <property name="seekable">1</property>
    <property name="audio_index">0</property>
    <property name="video_index">-1</property>
    <property name="creation_time">2025-02-26T18:29:06</property>
    <property name="astream">0</property>
    <property name="shotcut:skipConvert">0</property>
    <property name="shotcut:hash">fb6c2121ac06dbf557350e48af7e7f72</property>
    <property name="ignore_points">0</property>
    <property name="shotcut:caption">voiceover_1-6_redo.ogg</property>
    <property name="xml">was here</property>
  </chain>
  <chain id="chain28" out="00:02:57.083">
    <property name="length">00:02:57.100</property>
    <property name="eof">pause</property>
    <property name="resource">voiceover_1-6_redo.ogg</property>
    <property name="mlt_service">avformat-novalidate</property>
    <property name="meta.media.nb_streams">1</property>
    <property name="meta.media.0.stream.type">audio</property>
    <property name="meta.media.0.codec.sample_fmt">fltp</property>
    <property name="meta.media.0.codec.sample_rate">44100</property>
    <property name="meta.media.0.codec.channels">2</property>
    <property name="meta.media.0.codec.layout">stereo</property>
    <property name="meta.media.0.codec.name">vorbis</property>
    <property name="meta.media.0.codec.long_name">Vorbis</property>
    <property name="meta.media.0.codec.bit_rate">499821</property>
    <property name="seekable">1</property>
    <property name="audio_index">0</property>
    <property name="video_index">-1</property>
    <property name="creation_time">2025-02-26T18:29:06</property>
    <property name="astream">0</property>
    <property name="shotcut:skipConvert">0</property>
    <property name="shotcut:hash">fb6c2121ac06dbf557350e48af7e7f72</property>
    <property name="ignore_points">0</property>
    <property name="shotcut:caption">voiceover_1-6_redo.ogg</property>
    <property name="xml">was here</property>
  </chain>
  <chain id="chain29" out="00:02:57.083">
    <property name="length">00:02:57.100</property>
    <property name="eof">pause</property>
    <property name="resource">voiceover_1-6_redo.ogg</property>
    <property name="mlt_service">avformat-novalidate</property>
    <property name="meta.media.nb_streams">1</property>
    <property name="meta.media.0.stream.type">audio</property>
    <property name="meta.media.0.codec.sample_fmt">fltp</property>
    <property name="meta.media.0.codec.sample_rate">44100</property>
    <property name="meta.media.0.codec.channels">2</property>
    <property name="meta.media.0.codec.layout">stereo</property>
    <property name="meta.media.0.codec.name">vorbis</property>
    <property name="meta.media.0.codec.long_name">Vorbis</property>
    <property name="meta.media.0.codec.bit_rate">499821</property>
    <property name="seekable">1</property>
    <property name="audio_index">0</property>
    <property name="video_index">-1</property>
    <property name="creation_time">2025-02-26T18:29:06</property>
    <property name="astream">0</property>
    <property name="shotcut:skipConvert">0</property>
    <property name="shotcut:hash">fb6c2121ac06dbf557350e48af7e7f72</property>
    <property name="ignore_points">0</property>
    <property name="shotcut:caption">voiceover_1-6_redo.ogg</property>
    <property name="xml">was here</property>
  </chain>
  <chain id="chain30" out="00:02:57.083">
    <property name="length">00:02:57.100</property>
    <property name="eof">pause</property>
    <property name="resource">voiceover_1-6_redo.ogg</property>
    <property name="mlt_service">avformat-novalidate</property>
    <property name="meta.media.nb_streams">1</property>
    <property name="meta.media.0.stream.type">audio</property>
    <property name="meta.media.0.codec.sample_fmt">fltp</property>
    <property name="meta.media.0.codec.sample_rate">44100</property>
    <property name="meta.media.0.codec.channels">2</property>
    <property name="meta.media.0.codec.layout">stereo</property>
    <property name="meta.media.0.codec.name">vorbis</property>
    <property name="meta.media.0.codec.long_name">Vorbis</property>
    <property name="meta.media.0.codec.bit_rate">499821</property>
    <property name="seekable">1</property>
    <property name="audio_index">0</property>
    <property name="video_index">-1</property>
    <property name="creation_time">2025-02-26T18:29:06</property>
    <property name="astream">0</property>
    <property name="shotcut:skipConvert">0</property>
    <property name="shotcut:hash">fb6c2121ac06dbf557350e48af7e7f72</property>
    <property name="ignore_points">0</property>
    <property name="shotcut:caption">voiceover_1-6_redo.ogg</property>
    <property name="xml">was here</property>
  </chain>
  <chain id="chain31" out="00:11:58.433">
    <property name="length">00:11:58.450</property>
    <property name="eof">pause</property>
    <property name="resource">voice_over.ogg</property>
    <property name="mlt_service">avformat-novalidate</property>
    <property name="meta.media.nb_streams">1</property>
    <property name="meta.media.0.stream.type">audio</property>
    <property name="meta.media.0.codec.sample_fmt">fltp</property>
    <property name="meta.media.0.codec.sample_rate">44100</property>
    <property name="meta.media.0.codec.channels">2</property>
    <property name="meta.media.0.codec.layout">stereo</property>
    <property name="meta.media.0.codec.name">vorbis</property>
    <property name="meta.media.0.codec.long_name">Vorbis</property>
    <property name="meta.media.0.codec.bit_rate">499821</property>
    <property name="seekable">1</property>
    <property name="audio_index">0</property>
    <property name="video_index">-1</property>
    <property name="creation_time">2025-02-26T16:34:41</property>
    <property name="astream">0</property>
    <property name="shotcut:skipConvert">0</property>
    <property name="shotcut:hash">dbe129d7d99ffd905a06918261943e2f</property>
    <property name="ignore_points">0</property>
    <property name="shotcut:caption">voice_over.ogg</property>
    <property name="xml">was here</property>
  </chain>
  <chain id="chain32" out="00:11:58.433">
    <property name="length">00:11:58.450</property>
    <property name="eof">pause</property>
    <property name="resource">voice_over.ogg</property>
    <property name="mlt_service">avformat-novalidate</property>
    <property name="meta.media.nb_streams">1</property>
    <property name="meta.media.0.stream.type">audio</property>
    <property name="meta.media.0.codec.sample_fmt">fltp</property>
    <property name="meta.media.0.codec.sample_rate">44100</property>
    <property name="meta.media.0.codec.channels">2</property>
    <property name="meta.media.0.codec.layout">stereo</property>
    <property name="meta.media.0.codec.name">vorbis</property>
    <property name="meta.media.0.codec.long_name">Vorbis</property>
    <property name="meta.media.0.codec.bit_rate">499821</property>
    <property name="seekable">1</property>
    <property name="audio_index">0</property>
    <property name="video_index">-1</property>
    <property name="creation_time">2025-02-26T16:34:41</property>
    <property name="astream">0</property>
    <property name="shotcut:skipConvert">0</property>
    <property name="shotcut:hash">dbe129d7d99ffd905a06918261943e2f</property>
    <property name="ignore_points">0</property>
    <property name="shotcut:caption">voice_over.ogg</property>
    <property name="xml">was here</property>
  </chain>
  <chain id="chain33" out="00:11:58.433">
    <property name="length">00:11:58.450</property>
    <property name="eof">pause</property>
    <property name="resource">voice_over.ogg</property>
    <property name="mlt_service">avformat-novalidate</property>
    <property name="meta.media.nb_streams">1</property>
    <property name="meta.media.0.stream.type">audio</property>
    <property name="meta.media.0.codec.sample_fmt">fltp</property>
    <property name="meta.media.0.codec.sample_rate">44100</property>
    <property name="meta.media.0.codec.channels">2</property>
    <property name="meta.media.0.codec.layout">stereo</property>
    <property name="meta.media.0.codec.name">vorbis</property>
    <property name="meta.media.0.codec.long_name">Vorbis</property>
    <property name="meta.media.0.codec.bit_rate">499821</property>
    <property name="seekable">1</property>
    <property name="audio_index">0</property>
    <property name="video_index">-1</property>
    <property name="creation_time">2025-02-26T16:34:41</property>
    <property name="astream">0</property>
    <property name="shotcut:skipConvert">0</property>
    <property name="shotcut:hash">dbe129d7d99ffd905a06918261943e2f</property>
    <property name="ignore_points">0</property>
    <property name="shotcut:caption">voice_over.ogg</property>
    <property name="xml">was here</property>
  </chain>
  <chain id="chain34" out="00:11:58.433">
    <property name="length">00:11:58.450</property>
    <property name="eof">pause</property>
    <property name="resource">voice_over.ogg</property>
    <property name="mlt_service">avformat-novalidate</property>
    <property name="meta.media.nb_streams">1</property>
    <property name="meta.media.0.stream.type">audio</property>
    <property name="meta.media.0.codec.sample_fmt">fltp</property>
    <property name="meta.media.0.codec.sample_rate">44100</property>
    <property name="meta.media.0.codec.channels">2</property>
    <property name="meta.media.0.codec.layout">stereo</property>
    <property name="meta.media.0.codec.name">vorbis</property>
    <property name="meta.media.0.codec.long_name">Vorbis</property>
    <property name="meta.media.0.codec.bit_rate">499821</property>
    <property name="seekable">1</property>
    <property name="audio_index">0</property>
    <property name="video_index">-1</property>
    <property name="creation_time">2025-02-26T16:34:41</property>
    <property name="astream">0</property>
    <property name="shotcut:skipConvert">0</property>
    <property name="shotcut:hash">dbe129d7d99ffd905a06918261943e2f</property>
    <property name="ignore_points">0</property>
    <property name="shotcut:caption">voice_over.ogg</property>
    <property name="xml">was here</property>
  </chain>
  <chain id="chain35" out="00:11:58.433">
    <property name="length">00:11:58.450</property>
    <property name="eof">pause</property>
    <property name="resource">voice_over.ogg</property>
    <property name="mlt_service">avformat-novalidate</property>
    <property name="meta.media.nb_streams">1</property>
    <property name="meta.media.0.stream.type">audio</property>
    <property name="meta.media.0.codec.sample_fmt">fltp</property>
    <property name="meta.media.0.codec.sample_rate">44100</property>
    <property name="meta.media.0.codec.channels">2</property>
    <property name="meta.media.0.codec.layout">stereo</property>
    <property name="meta.media.0.codec.name">vorbis</property>
    <property name="meta.media.0.codec.long_name">Vorbis</property>
    <property name="meta.media.0.codec.bit_rate">499821</property>
    <property name="seekable">1</property>
    <property name="audio_index">0</property>
    <property name="video_index">-1</property>
    <property name="creation_time">2025-02-26T16:34:41</property>
    <property name="astream">0</property>
    <property name="shotcut:skipConvert">0</property>
    <property name="shotcut:hash">dbe129d7d99ffd905a06918261943e2f</property>
    <property name="ignore_points">0</property>
    <property name="shotcut:caption">voice_over.ogg</property>
    <property name="xml">was here</property>
  </chain>
  <chain id="chain36" out="00:11:58.433">
    <property name="length">00:11:58.450</property>
    <property name="eof">pause</property>
    <property name="resource">voice_over.ogg</property>
    <property name="mlt_service">avformat-novalidate</property>
    <property name="meta.media.nb_streams">1</property>
    <property name="meta.media.0.stream.type">audio</property>
    <property name="meta.media.0.codec.sample_fmt">fltp</property>
    <property name="meta.media.0.codec.sample_rate">44100</property>
    <property name="meta.media.0.codec.channels">2</property>
    <property name="meta.media.0.codec.layout">stereo</property>
    <property name="meta.media.0.codec.name">vorbis</property>
    <property name="meta.media.0.codec.long_name">Vorbis</property>
    <property name="meta.media.0.codec.bit_rate">499821</property>
    <property name="seekable">1</property>
    <property name="audio_index">0</property>
    <property name="video_index">-1</property>
    <property name="creation_time">2025-02-26T16:34:41</property>
    <property name="astream">0</property>
    <property name="shotcut:skipConvert">0</property>
    <property name="shotcut:hash">dbe129d7d99ffd905a06918261943e2f</property>
    <property name="ignore_points">0</property>
    <property name="shotcut:caption">voice_over.ogg</property>
    <property name="xml">was here</property>
  </chain>
  <chain id="chain37" out="00:11:58.433">
    <property name="length">00:11:58.450</property>
    <property name="eof">pause</property>
    <property name="resource">voice_over.ogg</property>
    <property name="mlt_service">avformat-novalidate</property>
    <property name="meta.media.nb_streams">1</property>
    <property name="meta.media.0.stream.type">audio</property>
    <property name="meta.media.0.codec.sample_fmt">fltp</property>
    <property name="meta.media.0.codec.sample_rate">44100</property>
    <property name="meta.media.0.codec.channels">2</property>
    <property name="meta.media.0.codec.layout">stereo</property>
    <property name="meta.media.0.codec.name">vorbis</property>
    <property name="meta.media.0.codec.long_name">Vorbis</property>
    <property name="meta.media.0.codec.bit_rate">499821</property>
    <property name="seekable">1</property>
    <property name="audio_index">0</property>
    <property name="video_index">-1</property>
    <property name="creation_time">2025-02-26T16:34:41</property>
    <property name="astream">0</property>
    <property name="shotcut:skipConvert">0</property>
    <property name="shotcut:hash">dbe129d7d99ffd905a06918261943e2f</property>
    <property name="ignore_points">0</property>
    <property name="shotcut:caption">voice_over.ogg</property>
    <property name="xml">was here</property>
  </chain>
  <chain id="chain38" out="00:11:58.433">
    <property name="length">00:11:58.450</property>
    <property name="eof">pause</property>
    <property name="resource">voice_over.ogg</property>
    <property name="mlt_service">avformat-novalidate</property>
    <property name="meta.media.nb_streams">1</property>
    <property name="meta.media.0.stream.type">audio</property>
    <property name="meta.media.0.codec.sample_fmt">fltp</property>
    <property name="meta.media.0.codec.sample_rate">44100</property>
    <property name="meta.media.0.codec.channels">2</property>
    <property name="meta.media.0.codec.layout">stereo</property>
    <property name="meta.media.0.codec.name">vorbis</property>
    <property name="meta.media.0.codec.long_name">Vorbis</property>
    <property name="meta.media.0.codec.bit_rate">499821</property>
    <property name="seekable">1</property>
    <property name="audio_index">0</property>
    <property name="video_index">-1</property>
    <property name="creation_time">2025-02-26T16:34:41</property>
    <property name="astream">0</property>
    <property name="shotcut:skipConvert">0</property>
    <property name="shotcut:hash">dbe129d7d99ffd905a06918261943e2f</property>
    <property name="ignore_points">0</property>
    <property name="shotcut:caption">voice_over.ogg</property>
    <property name="xml">was here</property>
  </chain>
  <chain id="chain39" out="00:11:58.433">
    <property name="length">00:11:58.450</property>
    <property name="eof">pause</property>
    <property name="resource">voice_over.ogg</property>
    <property name="mlt_service">avformat-novalidate</property>
    <property name="meta.media.nb_streams">1</property>
    <property name="meta.media.0.stream.type">audio</property>
    <property name="meta.media.0.codec.sample_fmt">fltp</property>
    <property name="meta.media.0.codec.sample_rate">44100</property>
    <property name="meta.media.0.codec.channels">2</property>
    <property name="meta.media.0.codec.layout">stereo</property>
    <property name="meta.media.0.codec.name">vorbis</property>
    <property name="meta.media.0.codec.long_name">Vorbis</property>
    <property name="meta.media.0.codec.bit_rate">499821</property>
    <property name="seekable">1</property>
    <property name="audio_index">0</property>
    <property name="video_index">-1</property>
    <property name="creation_time">2025-02-26T16:34:41</property>
    <property name="astream">0</property>
    <property name="shotcut:skipConvert">0</property>
    <property name="shotcut:hash">dbe129d7d99ffd905a06918261943e2f</property>
    <property name="ignore_points">0</property>
    <property name="shotcut:caption">voice_over.ogg</property>
    <property name="xml">was here</property>
  </chain>
  <chain id="chain40" out="00:11:58.433">
    <property name="length">00:11:58.450</property>
    <property name="eof">pause</property>
    <property name="resource">voice_over.ogg</property>
    <property name="mlt_service">avformat-novalidate</property>
    <property name="meta.media.nb_streams">1</property>
    <property name="meta.media.0.stream.type">audio</property>
    <property name="meta.media.0.codec.sample_fmt">fltp</property>
    <property name="meta.media.0.codec.sample_rate">44100</property>
    <property name="meta.media.0.codec.channels">2</property>
    <property name="meta.media.0.codec.layout">stereo</property>
    <property name="meta.media.0.codec.name">vorbis</property>
    <property name="meta.media.0.codec.long_name">Vorbis</property>
    <property name="meta.media.0.codec.bit_rate">499821</property>
    <property name="seekable">1</property>
    <property name="audio_index">0</property>
    <property name="video_index">-1</property>
    <property name="creation_time">2025-02-26T16:34:41</property>
    <property name="astream">0</property>
    <property name="shotcut:skipConvert">0</property>
    <property name="shotcut:hash">dbe129d7d99ffd905a06918261943e2f</property>
    <property name="ignore_points">0</property>
    <property name="shotcut:caption">voice_over.ogg</property>
    <property name="xml">was here</property>
  </chain>
  <chain id="chain41" out="00:11:58.433">
    <property name="length">00:11:58.450</property>
    <property name="eof">pause</property>
    <property name="resource">voice_over.ogg</property>
    <property name="mlt_service">avformat-novalidate</property>
    <property name="meta.media.nb_streams">1</property>
    <property name="meta.media.0.stream.type">audio</property>
    <property name="meta.media.0.codec.sample_fmt">fltp</property>
    <property name="meta.media.0.codec.sample_rate">44100</property>
    <property name="meta.media.0.codec.channels">2</property>
    <property name="meta.media.0.codec.layout">stereo</property>
    <property name="meta.media.0.codec.name">vorbis</property>
    <property name="meta.media.0.codec.long_name">Vorbis</property>
    <property name="meta.media.0.codec.bit_rate">499821</property>
    <property name="seekable">1</property>
    <property name="audio_index">0</property>
    <property name="video_index">-1</property>
    <property name="creation_time">2025-02-26T16:34:41</property>
    <property name="astream">0</property>
    <property name="shotcut:skipConvert">0</property>
    <property name="shotcut:hash">dbe129d7d99ffd905a06918261943e2f</property>
    <property name="ignore_points">0</property>
    <property name="shotcut:caption">voice_over.ogg</property>
    <property name="xml">was here</property>
  </chain>
  <chain id="chain42" out="00:11:58.433">
    <property name="length">00:11:58.450</property>
    <property name="eof">pause</property>
    <property name="resource">voice_over.ogg</property>
    <property name="mlt_service">avformat-novalidate</property>
    <property name="meta.media.nb_streams">1</property>
    <property name="meta.media.0.stream.type">audio</property>
    <property name="meta.media.0.codec.sample_fmt">fltp</property>
    <property name="meta.media.0.codec.sample_rate">44100</property>
    <property name="meta.media.0.codec.channels">2</property>
    <property name="meta.media.0.codec.layout">stereo</property>
    <property name="meta.media.0.codec.name">vorbis</property>
    <property name="meta.media.0.codec.long_name">Vorbis</property>
    <property name="meta.media.0.codec.bit_rate">499821</property>
    <property name="seekable">1</property>
    <property name="audio_index">0</property>
    <property name="video_index">-1</property>
    <property name="creation_time">2025-02-26T16:34:41</property>
    <property name="astream">0</property>
    <property name="shotcut:skipConvert">0</property>
    <property name="shotcut:hash">dbe129d7d99ffd905a06918261943e2f</property>
    <property name="ignore_points">0</property>
    <property name="shotcut:caption">voice_over.ogg</property>
    <property name="xml">was here</property>
  </chain>
  <chain id="chain43" out="00:11:58.433">
    <property name="length">00:11:58.450</property>
    <property name="eof">pause</property>
    <property name="resource">voice_over.ogg</property>
    <property name="mlt_service">avformat-novalidate</property>
    <property name="meta.media.nb_streams">1</property>
    <property name="meta.media.0.stream.type">audio</property>
    <property name="meta.media.0.codec.sample_fmt">fltp</property>
    <property name="meta.media.0.codec.sample_rate">44100</property>
    <property name="meta.media.0.codec.channels">2</property>
    <property name="meta.media.0.codec.layout">stereo</property>
    <property name="meta.media.0.codec.name">vorbis</property>
    <property name="meta.media.0.codec.long_name">Vorbis</property>
    <property name="meta.media.0.codec.bit_rate">499821</property>
    <property name="seekable">1</property>
    <property name="audio_index">0</property>
    <property name="video_index">-1</property>
    <property name="creation_time">2025-02-26T16:34:41</property>
    <property name="astream">0</property>
    <property name="shotcut:skipConvert">0</property>
    <property name="shotcut:hash">dbe129d7d99ffd905a06918261943e2f</property>
    <property name="ignore_points">0</property>
    <property name="shotcut:caption">voice_over.ogg</property>
    <property name="xml">was here</property>
  </chain>
  <chain id="chain44" out="00:11:58.433">
    <property name="length">00:11:58.450</property>
    <property name="eof">pause</property>
    <property name="resource">voice_over.ogg</property>
    <property name="mlt_service">avformat-novalidate</property>
    <property name="meta.media.nb_streams">1</property>
    <property name="meta.media.0.stream.type">audio</property>
    <property name="meta.media.0.codec.sample_fmt">fltp</property>
    <property name="meta.media.0.codec.sample_rate">44100</property>
    <property name="meta.media.0.codec.channels">2</property>
    <property name="meta.media.0.codec.layout">stereo</property>
    <property name="meta.media.0.codec.name">vorbis</property>
    <property name="meta.media.0.codec.long_name">Vorbis</property>
    <property name="meta.media.0.codec.bit_rate">499821</property>
    <property name="seekable">1</property>
    <property name="audio_index">0</property>
    <property name="video_index">-1</property>
    <property name="creation_time">2025-02-26T16:34:41</property>
    <property name="astream">0</property>
    <property name="shotcut:skipConvert">0</property>
    <property name="shotcut:hash">dbe129d7d99ffd905a06918261943e2f</property>
    <property name="ignore_points">0</property>
    <property name="shotcut:caption">voice_over.ogg</property>
    <property name="xml">was here</property>
  </chain>
  <chain id="chain45" out="00:11:58.433">
    <property name="length">00:11:58.450</property>
    <property name="eof">pause</property>
    <property name="resource">voice_over.ogg</property>
    <property name="mlt_service">avformat-novalidate</property>
    <property name="meta.media.nb_streams">1</property>
    <property name="meta.media.0.stream.type">audio</property>
    <property name="meta.media.0.codec.sample_fmt">fltp</property>
    <property name="meta.media.0.codec.sample_rate">44100</property>
    <property name="meta.media.0.codec.channels">2</property>
    <property name="meta.media.0.codec.layout">stereo</property>
    <property name="meta.media.0.codec.name">vorbis</property>
    <property name="meta.media.0.codec.long_name">Vorbis</property>
    <property name="meta.media.0.codec.bit_rate">499821</property>
    <property name="seekable">1</property>
    <property name="audio_index">0</property>
    <property name="video_index">-1</property>
    <property name="creation_time">2025-02-26T16:34:41</property>
    <property name="astream">0</property>
    <property name="shotcut:skipConvert">0</property>
    <property name="shotcut:hash">dbe129d7d99ffd905a06918261943e2f</property>
    <property name="ignore_points">0</property>
    <property name="shotcut:caption">voice_over.ogg</property>
    <property name="xml">was here</property>
  </chain>
  <chain id="chain46" out="00:11:58.433">
    <property name="length">00:11:58.450</property>
    <property name="eof">pause</property>
    <property name="resource">voice_over.ogg</property>
    <property name="mlt_service">avformat-novalidate</property>
    <property name="meta.media.nb_streams">1</property>
    <property name="meta.media.0.stream.type">audio</property>
    <property name="meta.media.0.codec.sample_fmt">fltp</property>
    <property name="meta.media.0.codec.sample_rate">44100</property>
    <property name="meta.media.0.codec.channels">2</property>
    <property name="meta.media.0.codec.layout">stereo</property>
    <property name="meta.media.0.codec.name">vorbis</property>
    <property name="meta.media.0.codec.long_name">Vorbis</property>
    <property name="meta.media.0.codec.bit_rate">499821</property>
    <property name="seekable">1</property>
    <property name="audio_index">0</property>
    <property name="video_index">-1</property>
    <property name="creation_time">2025-02-26T16:34:41</property>
    <property name="astream">0</property>
    <property name="shotcut:skipConvert">0</property>
    <property name="shotcut:hash">dbe129d7d99ffd905a06918261943e2f</property>
    <property name="ignore_points">0</property>
    <property name="shotcut:caption">voice_over.ogg</property>
    <property name="xml">was here</property>
  </chain>
  <chain id="chain47" out="00:11:58.433">
    <property name="length">00:11:58.450</property>
    <property name="eof">pause</property>
    <property name="resource">voice_over.ogg</property>
    <property name="mlt_service">avformat-novalidate</property>
    <property name="meta.media.nb_streams">1</property>
    <property name="meta.media.0.stream.type">audio</property>
    <property name="meta.media.0.codec.sample_fmt">fltp</property>
    <property name="meta.media.0.codec.sample_rate">44100</property>
    <property name="meta.media.0.codec.channels">2</property>
    <property name="meta.media.0.codec.layout">stereo</property>
    <property name="meta.media.0.codec.name">vorbis</property>
    <property name="meta.media.0.codec.long_name">Vorbis</property>
    <property name="meta.media.0.codec.bit_rate">499821</property>
    <property name="seekable">1</property>
    <property name="audio_index">0</property>
    <property name="video_index">-1</property>
    <property name="creation_time">2025-02-26T16:34:41</property>
    <property name="astream">0</property>
    <property name="shotcut:skipConvert">0</property>
    <property name="shotcut:hash">dbe129d7d99ffd905a06918261943e2f</property>
    <property name="ignore_points">0</property>
    <property name="shotcut:caption">voice_over.ogg</property>
    <property name="xml">was here</property>
  </chain>
  <chain id="chain48" out="00:11:58.433">
    <property name="length">00:11:58.450</property>
    <property name="eof">pause</property>
    <property name="resource">voice_over.ogg</property>
    <property name="mlt_service">avformat-novalidate</property>
    <property name="meta.media.nb_streams">1</property>
    <property name="meta.media.0.stream.type">audio</property>
    <property name="meta.media.0.codec.sample_fmt">fltp</property>
    <property name="meta.media.0.codec.sample_rate">44100</property>
    <property name="meta.media.0.codec.channels">2</property>
    <property name="meta.media.0.codec.layout">stereo</property>
    <property name="meta.media.0.codec.name">vorbis</property>
    <property name="meta.media.0.codec.long_name">Vorbis</property>
    <property name="meta.media.0.codec.bit_rate">499821</property>
    <property name="seekable">1</property>
    <property name="audio_index">0</property>
    <property name="video_index">-1</property>
    <property name="creation_time">2025-02-26T16:34:41</property>
    <property name="astream">0</property>
    <property name="shotcut:skipConvert">0</property>
    <property name="shotcut:hash">dbe129d7d99ffd905a06918261943e2f</property>
    <property name="ignore_points">0</property>
    <property name="shotcut:caption">voice_over.ogg</property>
    <property name="xml">was here</property>
  </chain>
  <chain id="chain49" out="00:11:58.433">
    <property name="length">00:11:58.450</property>
    <property name="eof">pause</property>
    <property name="resource">voice_over.ogg</property>
    <property name="mlt_service">avformat-novalidate</property>
    <property name="meta.media.nb_streams">1</property>
    <property name="meta.media.0.stream.type">audio</property>
    <property name="meta.media.0.codec.sample_fmt">fltp</property>
    <property name="meta.media.0.codec.sample_rate">44100</property>
    <property name="meta.media.0.codec.channels">2</property>
    <property name="meta.media.0.codec.layout">stereo</property>
    <property name="meta.media.0.codec.name">vorbis</property>
    <property name="meta.media.0.codec.long_name">Vorbis</property>
    <property name="meta.media.0.codec.bit_rate">499821</property>
    <property name="seekable">1</property>
    <property name="audio_index">0</property>
    <property name="video_index">-1</property>
    <property name="creation_time">2025-02-26T16:34:41</property>
    <property name="astream">0</property>
    <property name="shotcut:skipConvert">0</property>
    <property name="shotcut:hash">dbe129d7d99ffd905a06918261943e2f</property>
    <property name="ignore_points">0</property>
    <property name="shotcut:caption">voice_over.ogg</property>
    <property name="xml">was here</property>
  </chain>
  <chain id="chain50" out="00:11:58.433">
    <property name="length">00:11:58.450</property>
    <property name="eof">pause</property>
    <property name="resource">voice_over.ogg</property>
    <property name="mlt_service">avformat-novalidate</property>
    <property name="meta.media.nb_streams">1</property>
    <property name="meta.media.0.stream.type">audio</property>
    <property name="meta.media.0.codec.sample_fmt">fltp</property>
    <property name="meta.media.0.codec.sample_rate">44100</property>
    <property name="meta.media.0.codec.channels">2</property>
    <property name="meta.media.0.codec.layout">stereo</property>
    <property name="meta.media.0.codec.name">vorbis</property>
    <property name="meta.media.0.codec.long_name">Vorbis</property>
    <property name="meta.media.0.codec.bit_rate">499821</property>
    <property name="seekable">1</property>
    <property name="audio_index">0</property>
    <property name="video_index">-1</property>
    <property name="creation_time">2025-02-26T16:34:41</property>
    <property name="astream">0</property>
    <property name="shotcut:skipConvert">0</property>
    <property name="shotcut:hash">dbe129d7d99ffd905a06918261943e2f</property>
    <property name="ignore_points">0</property>
    <property name="shotcut:caption">voice_over.ogg</property>
    <property name="xml">was here</property>
  </chain>
  <chain id="chain51" out="00:11:58.433">
    <property name="length">00:11:58.450</property>
    <property name="eof">pause</property>
    <property name="resource">voice_over.ogg</property>
    <property name="mlt_service">avformat-novalidate</property>
    <property name="meta.media.nb_streams">1</property>
    <property name="meta.media.0.stream.type">audio</property>
    <property name="meta.media.0.codec.sample_fmt">fltp</property>
    <property name="meta.media.0.codec.sample_rate">44100</property>
    <property name="meta.media.0.codec.channels">2</property>
    <property name="meta.media.0.codec.layout">stereo</property>
    <property name="meta.media.0.codec.name">vorbis</property>
    <property name="meta.media.0.codec.long_name">Vorbis</property>
    <property name="meta.media.0.codec.bit_rate">499821</property>
    <property name="seekable">1</property>
    <property name="audio_index">0</property>
    <property name="video_index">-1</property>
    <property name="creation_time">2025-02-26T16:34:41</property>
    <property name="astream">0</property>
    <property name="shotcut:skipConvert">0</property>
    <property name="shotcut:hash">dbe129d7d99ffd905a06918261943e2f</property>
    <property name="ignore_points">0</property>
    <property name="shotcut:caption">voice_over.ogg</property>
    <property name="xml">was here</property>
  </chain>
  <chain id="chain52" out="00:11:58.433">
    <property name="length">00:11:58.450</property>
    <property name="eof">pause</property>
    <property name="resource">voice_over.ogg</property>
    <property name="mlt_service">avformat-novalidate</property>
    <property name="meta.media.nb_streams">1</property>
    <property name="meta.media.0.stream.type">audio</property>
    <property name="meta.media.0.codec.sample_fmt">fltp</property>
    <property name="meta.media.0.codec.sample_rate">44100</property>
    <property name="meta.media.0.codec.channels">2</property>
    <property name="meta.media.0.codec.layout">stereo</property>
    <property name="meta.media.0.codec.name">vorbis</property>
    <property name="meta.media.0.codec.long_name">Vorbis</property>
    <property name="meta.media.0.codec.bit_rate">499821</property>
    <property name="seekable">1</property>
    <property name="audio_index">0</property>
    <property name="video_index">-1</property>
    <property name="creation_time">2025-02-26T16:34:41</property>
    <property name="astream">0</property>
    <property name="shotcut:skipConvert">0</property>
    <property name="shotcut:hash">dbe129d7d99ffd905a06918261943e2f</property>
    <property name="ignore_points">0</property>
    <property name="shotcut:caption">voice_over.ogg</property>
    <property name="xml">was here</property>
  </chain>
  <chain id="chain53" out="00:11:58.433">
    <property name="length">00:11:58.450</property>
    <property name="eof">pause</property>
    <property name="resource">voice_over.ogg</property>
    <property name="mlt_service">avformat-novalidate</property>
    <property name="meta.media.nb_streams">1</property>
    <property name="meta.media.0.stream.type">audio</property>
    <property name="meta.media.0.codec.sample_fmt">fltp</property>
    <property name="meta.media.0.codec.sample_rate">44100</property>
    <property name="meta.media.0.codec.channels">2</property>
    <property name="meta.media.0.codec.layout">stereo</property>
    <property name="meta.media.0.codec.name">vorbis</property>
    <property name="meta.media.0.codec.long_name">Vorbis</property>
    <property name="meta.media.0.codec.bit_rate">499821</property>
    <property name="seekable">1</property>
    <property name="audio_index">0</property>
    <property name="video_index">-1</property>
    <property name="creation_time">2025-02-26T16:34:41</property>
    <property name="astream">0</property>
    <property name="shotcut:skipConvert">0</property>
    <property name="shotcut:hash">dbe129d7d99ffd905a06918261943e2f</property>
    <property name="ignore_points">0</property>
    <property name="shotcut:caption">voice_over.ogg</property>
    <property name="xml">was here</property>
  </chain>
  <chain id="chain54" out="00:11:58.433">
    <property name="length">00:11:58.450</property>
    <property name="eof">pause</property>
    <property name="resource">voice_over.ogg</property>
    <property name="mlt_service">avformat-novalidate</property>
    <property name="meta.media.nb_streams">1</property>
    <property name="meta.media.0.stream.type">audio</property>
    <property name="meta.media.0.codec.sample_fmt">fltp</property>
    <property name="meta.media.0.codec.sample_rate">44100</property>
    <property name="meta.media.0.codec.channels">2</property>
    <property name="meta.media.0.codec.layout">stereo</property>
    <property name="meta.media.0.codec.name">vorbis</property>
    <property name="meta.media.0.codec.long_name">Vorbis</property>
    <property name="meta.media.0.codec.bit_rate">499821</property>
    <property name="seekable">1</property>
    <property name="audio_index">0</property>
    <property name="video_index">-1</property>
    <property name="creation_time">2025-02-26T16:34:41</property>
    <property name="astream">0</property>
    <property name="shotcut:skipConvert">0</property>
    <property name="shotcut:hash">dbe129d7d99ffd905a06918261943e2f</property>
    <property name="ignore_points">0</property>
    <property name="shotcut:caption">voice_over.ogg</property>
    <property name="xml">was here</property>
  </chain>
  <chain id="chain55" out="00:11:58.433">
    <property name="length">00:11:58.450</property>
    <property name="eof">pause</property>
    <property name="resource">voice_over.ogg</property>
    <property name="mlt_service">avformat-novalidate</property>
    <property name="meta.media.nb_streams">1</property>
    <property name="meta.media.0.stream.type">audio</property>
    <property name="meta.media.0.codec.sample_fmt">fltp</property>
    <property name="meta.media.0.codec.sample_rate">44100</property>
    <property name="meta.media.0.codec.channels">2</property>
    <property name="meta.media.0.codec.layout">stereo</property>
    <property name="meta.media.0.codec.name">vorbis</property>
    <property name="meta.media.0.codec.long_name">Vorbis</property>
    <property name="meta.media.0.codec.bit_rate">499821</property>
    <property name="seekable">1</property>
    <property name="audio_index">0</property>
    <property name="video_index">-1</property>
    <property name="creation_time">2025-02-26T16:34:41</property>
    <property name="astream">0</property>
    <property name="shotcut:skipConvert">0</property>
    <property name="shotcut:hash">dbe129d7d99ffd905a06918261943e2f</property>
    <property name="ignore_points">0</property>
    <property name="shotcut:caption">voice_over.ogg</property>
    <property name="xml">was here</property>
  </chain>
  <chain id="chain56" out="00:11:58.433">
    <property name="length">00:11:58.450</property>
    <property name="eof">pause</property>
    <property name="resource">voice_over.ogg</property>
    <property name="mlt_service">avformat-novalidate</property>
    <property name="meta.media.nb_streams">1</property>
    <property name="meta.media.0.stream.type">audio</property>
    <property name="meta.media.0.codec.sample_fmt">fltp</property>
    <property name="meta.media.0.codec.sample_rate">44100</property>
    <property name="meta.media.0.codec.channels">2</property>
    <property name="meta.media.0.codec.layout">stereo</property>
    <property name="meta.media.0.codec.name">vorbis</property>
    <property name="meta.media.0.codec.long_name">Vorbis</property>
    <property name="meta.media.0.codec.bit_rate">499821</property>
    <property name="seekable">1</property>
    <property name="audio_index">0</property>
    <property name="video_index">-1</property>
    <property name="creation_time">2025-02-26T16:34:41</property>
    <property name="astream">0</property>
    <property name="shotcut:skipConvert">0</property>
    <property name="shotcut:hash">dbe129d7d99ffd905a06918261943e2f</property>
    <property name="ignore_points">0</property>
    <property name="shotcut:caption">voice_over.ogg</property>
    <property name="xml">was here</property>
  </chain>
  <chain id="chain57" out="00:11:58.433">
    <property name="length">00:11:58.450</property>
    <property name="eof">pause</property>
    <property name="resource">voice_over.ogg</property>
    <property name="mlt_service">avformat-novalidate</property>
    <property name="meta.media.nb_streams">1</property>
    <property name="meta.media.0.stream.type">audio</property>
    <property name="meta.media.0.codec.sample_fmt">fltp</property>
    <property name="meta.media.0.codec.sample_rate">44100</property>
    <property name="meta.media.0.codec.channels">2</property>
    <property name="meta.media.0.codec.layout">stereo</property>
    <property name="meta.media.0.codec.name">vorbis</property>
    <property name="meta.media.0.codec.long_name">Vorbis</property>
    <property name="meta.media.0.codec.bit_rate">499821</property>
    <property name="seekable">1</property>
    <property name="audio_index">0</property>
    <property name="video_index">-1</property>
    <property name="creation_time">2025-02-26T16:34:41</property>
    <property name="astream">0</property>
    <property name="shotcut:skipConvert">0</property>
    <property name="shotcut:hash">dbe129d7d99ffd905a06918261943e2f</property>
    <property name="ignore_points">0</property>
    <property name="shotcut:caption">voice_over.ogg</property>
    <property name="xml">was here</property>
  </chain>
  <chain id="chain58" out="00:11:58.433">
    <property name="length">00:11:58.450</property>
    <property name="eof">pause</property>
    <property name="resource">voice_over.ogg</property>
    <property name="mlt_service">avformat-novalidate</property>
    <property name="meta.media.nb_streams">1</property>
    <property name="meta.media.0.stream.type">audio</property>
    <property name="meta.media.0.codec.sample_fmt">fltp</property>
    <property name="meta.media.0.codec.sample_rate">44100</property>
    <property name="meta.media.0.codec.channels">2</property>
    <property name="meta.media.0.codec.layout">stereo</property>
    <property name="meta.media.0.codec.name">vorbis</property>
    <property name="meta.media.0.codec.long_name">Vorbis</property>
    <property name="meta.media.0.codec.bit_rate">499821</property>
    <property name="seekable">1</property>
    <property name="audio_index">0</property>
    <property name="video_index">-1</property>
    <property name="creation_time">2025-02-26T16:34:41</property>
    <property name="astream">0</property>
    <property name="shotcut:skipConvert">0</property>
    <property name="shotcut:hash">dbe129d7d99ffd905a06918261943e2f</property>
    <property name="ignore_points">0</property>
    <property name="shotcut:caption">voice_over.ogg</property>
    <property name="xml">was here</property>
  </chain>
  <chain id="chain59" out="00:11:58.433">
    <property name="length">00:11:58.450</property>
    <property name="eof">pause</property>
    <property name="resource">voice_over.ogg</property>
    <property name="mlt_service">avformat-novalidate</property>
    <property name="meta.media.nb_streams">1</property>
    <property name="meta.media.0.stream.type">audio</property>
    <property name="meta.media.0.codec.sample_fmt">fltp</property>
    <property name="meta.media.0.codec.sample_rate">44100</property>
    <property name="meta.media.0.codec.channels">2</property>
    <property name="meta.media.0.codec.layout">stereo</property>
    <property name="meta.media.0.codec.name">vorbis</property>
    <property name="meta.media.0.codec.long_name">Vorbis</property>
    <property name="meta.media.0.codec.bit_rate">499821</property>
    <property name="seekable">1</property>
    <property name="audio_index">0</property>
    <property name="video_index">-1</property>
    <property name="creation_time">2025-02-26T16:34:41</property>
    <property name="astream">0</property>
    <property name="shotcut:skipConvert">0</property>
    <property name="shotcut:hash">dbe129d7d99ffd905a06918261943e2f</property>
    <property name="ignore_points">0</property>
    <property name="shotcut:caption">voice_over.ogg</property>
    <property name="xml">was here</property>
  </chain>
  <chain id="chain60" out="00:11:58.433">
    <property name="length">00:11:58.450</property>
    <property name="eof">pause</property>
    <property name="resource">voice_over.ogg</property>
    <property name="mlt_service">avformat-novalidate</property>
    <property name="meta.media.nb_streams">1</property>
    <property name="meta.media.0.stream.type">audio</property>
    <property name="meta.media.0.codec.sample_fmt">fltp</property>
    <property name="meta.media.0.codec.sample_rate">44100</property>
    <property name="meta.media.0.codec.channels">2</property>
    <property name="meta.media.0.codec.layout">stereo</property>
    <property name="meta.media.0.codec.name">vorbis</property>
    <property name="meta.media.0.codec.long_name">Vorbis</property>
    <property name="meta.media.0.codec.bit_rate">499821</property>
    <property name="seekable">1</property>
    <property name="audio_index">0</property>
    <property name="video_index">-1</property>
    <property name="creation_time">2025-02-26T16:34:41</property>
    <property name="astream">0</property>
    <property name="shotcut:skipConvert">0</property>
    <property name="shotcut:hash">dbe129d7d99ffd905a06918261943e2f</property>
    <property name="ignore_points">0</property>
    <property name="shotcut:caption">voice_over.ogg</property>
    <property name="xml">was here</property>
  </chain>
  <chain id="chain61" out="00:11:58.433">
    <property name="length">00:11:58.450</property>
    <property name="eof">pause</property>
    <property name="resource">voice_over.ogg</property>
    <property name="mlt_service">avformat-novalidate</property>
    <property name="meta.media.nb_streams">1</property>
    <property name="meta.media.0.stream.type">audio</property>
    <property name="meta.media.0.codec.sample_fmt">fltp</property>
    <property name="meta.media.0.codec.sample_rate">44100</property>
    <property name="meta.media.0.codec.channels">2</property>
    <property name="meta.media.0.codec.layout">stereo</property>
    <property name="meta.media.0.codec.name">vorbis</property>
    <property name="meta.media.0.codec.long_name">Vorbis</property>
    <property name="meta.media.0.codec.bit_rate">499821</property>
    <property name="seekable">1</property>
    <property name="audio_index">0</property>
    <property name="video_index">-1</property>
    <property name="creation_time">2025-02-26T16:34:41</property>
    <property name="astream">0</property>
    <property name="shotcut:skipConvert">0</property>
    <property name="shotcut:hash">dbe129d7d99ffd905a06918261943e2f</property>
    <property name="ignore_points">0</property>
    <property name="shotcut:caption">voice_over.ogg</property>
    <property name="xml">was here</property>
  </chain>
  <chain id="chain62" out="00:11:58.433">
    <property name="length">00:11:58.450</property>
    <property name="eof">pause</property>
    <property name="resource">voice_over.ogg</property>
    <property name="mlt_service">avformat-novalidate</property>
    <property name="meta.media.nb_streams">1</property>
    <property name="meta.media.0.stream.type">audio</property>
    <property name="meta.media.0.codec.sample_fmt">fltp</property>
    <property name="meta.media.0.codec.sample_rate">44100</property>
    <property name="meta.media.0.codec.channels">2</property>
    <property name="meta.media.0.codec.layout">stereo</property>
    <property name="meta.media.0.codec.name">vorbis</property>
    <property name="meta.media.0.codec.long_name">Vorbis</property>
    <property name="meta.media.0.codec.bit_rate">499821</property>
    <property name="seekable">1</property>
    <property name="audio_index">0</property>
    <property name="video_index">-1</property>
    <property name="creation_time">2025-02-26T16:34:41</property>
    <property name="astream">0</property>
    <property name="shotcut:skipConvert">0</property>
    <property name="shotcut:hash">dbe129d7d99ffd905a06918261943e2f</property>
    <property name="ignore_points">0</property>
    <property name="shotcut:caption">voice_over.ogg</property>
    <property name="xml">was here</property>
  </chain>
  <chain id="chain63" out="00:11:58.433">
    <property name="length">00:11:58.450</property>
    <property name="eof">pause</property>
    <property name="resource">voice_over.ogg</property>
    <property name="mlt_service">avformat-novalidate</property>
    <property name="meta.media.nb_streams">1</property>
    <property name="meta.media.0.stream.type">audio</property>
    <property name="meta.media.0.codec.sample_fmt">fltp</property>
    <property name="meta.media.0.codec.sample_rate">44100</property>
    <property name="meta.media.0.codec.channels">2</property>
    <property name="meta.media.0.codec.layout">stereo</property>
    <property name="meta.media.0.codec.name">vorbis</property>
    <property name="meta.media.0.codec.long_name">Vorbis</property>
    <property name="meta.media.0.codec.bit_rate">499821</property>
    <property name="seekable">1</property>
    <property name="audio_index">0</property>
    <property name="video_index">-1</property>
    <property name="creation_time">2025-02-26T16:34:41</property>
    <property name="astream">0</property>
    <property name="shotcut:skipConvert">0</property>
    <property name="shotcut:hash">dbe129d7d99ffd905a06918261943e2f</property>
    <property name="ignore_points">0</property>
    <property name="shotcut:caption">voice_over.ogg</property>
    <property name="xml">was here</property>
  </chain>
  <chain id="chain64" out="00:11:58.433">
    <property name="length">00:11:58.450</property>
    <property name="eof">pause</property>
    <property name="resource">voice_over.ogg</property>
    <property name="mlt_service">avformat-novalidate</property>
    <property name="meta.media.nb_streams">1</property>
    <property name="meta.media.0.stream.type">audio</property>
    <property name="meta.media.0.codec.sample_fmt">fltp</property>
    <property name="meta.media.0.codec.sample_rate">44100</property>
    <property name="meta.media.0.codec.channels">2</property>
    <property name="meta.media.0.codec.layout">stereo</property>
    <property name="meta.media.0.codec.name">vorbis</property>
    <property name="meta.media.0.codec.long_name">Vorbis</property>
    <property name="meta.media.0.codec.bit_rate">499821</property>
    <property name="seekable">1</property>
    <property name="audio_index">0</property>
    <property name="video_index">-1</property>
    <property name="creation_time">2025-02-26T16:34:41</property>
    <property name="astream">0</property>
    <property name="shotcut:skipConvert">0</property>
    <property name="shotcut:hash">dbe129d7d99ffd905a06918261943e2f</property>
    <property name="ignore_points">0</property>
    <property name="shotcut:caption">voice_over.ogg</property>
    <property name="xml">was here</property>
  </chain>
  <chain id="chain65" out="00:11:58.433">
    <property name="length">00:11:58.450</property>
    <property name="eof">pause</property>
    <property name="resource">voice_over.ogg</property>
    <property name="mlt_service">avformat-novalidate</property>
    <property name="meta.media.nb_streams">1</property>
    <property name="meta.media.0.stream.type">audio</property>
    <property name="meta.media.0.codec.sample_fmt">fltp</property>
    <property name="meta.media.0.codec.sample_rate">44100</property>
    <property name="meta.media.0.codec.channels">2</property>
    <property name="meta.media.0.codec.layout">stereo</property>
    <property name="meta.media.0.codec.name">vorbis</property>
    <property name="meta.media.0.codec.long_name">Vorbis</property>
    <property name="meta.media.0.codec.bit_rate">499821</property>
    <property name="seekable">1</property>
    <property name="audio_index">0</property>
    <property name="video_index">-1</property>
    <property name="creation_time">2025-02-26T16:34:41</property>
    <property name="astream">0</property>
    <property name="shotcut:skipConvert">0</property>
    <property name="shotcut:hash">dbe129d7d99ffd905a06918261943e2f</property>
    <property name="ignore_points">0</property>
    <property name="shotcut:caption">voice_over.ogg</property>
    <property name="xml">was here</property>
  </chain>
  <chain id="chain66" out="00:11:58.433">
    <property name="length">00:11:58.450</property>
    <property name="eof">pause</property>
    <property name="resource">voice_over.ogg</property>
    <property name="mlt_service">avformat-novalidate</property>
    <property name="meta.media.nb_streams">1</property>
    <property name="meta.media.0.stream.type">audio</property>
    <property name="meta.media.0.codec.sample_fmt">fltp</property>
    <property name="meta.media.0.codec.sample_rate">44100</property>
    <property name="meta.media.0.codec.channels">2</property>
    <property name="meta.media.0.codec.layout">stereo</property>
    <property name="meta.media.0.codec.name">vorbis</property>
    <property name="meta.media.0.codec.long_name">Vorbis</property>
    <property name="meta.media.0.codec.bit_rate">499821</property>
    <property name="seekable">1</property>
    <property name="audio_index">0</property>
    <property name="video_index">-1</property>
    <property name="creation_time">2025-02-26T16:34:41</property>
    <property name="astream">0</property>
    <property name="shotcut:skipConvert">0</property>
    <property name="shotcut:hash">dbe129d7d99ffd905a06918261943e2f</property>
    <property name="ignore_points">0</property>
    <property name="shotcut:caption">voice_over.ogg</property>
    <property name="xml">was here</property>
  </chain>
  <playlist id="playlist1">
    <property name="shotcut:audio">1</property>
    <property name="shotcut:name">A1</property>
    <property name="shotcut:lock">1</property>
    <blank length="00:00:08.083"/>
    <entry producer="chain13" in="00:00:04.367" out="00:00:06.467"/>
    <blank length="00:00:01.217"/>
    <entry producer="chain14" in="00:00:07.700" out="00:00:15.117"/>
    <blank length="00:00:00.567"/>
    <entry producer="chain15" in="00:00:15.700" out="00:00:21.733"/>
    <blank length="00:00:00.567"/>
    <entry producer="chain16" in="00:00:32.383" out="00:00:37.633"/>
    <blank length="00:00:00.600"/>
    <entry producer="chain17" in="00:00:38.250" out="00:00:46.067"/>
    <entry producer="chain18" in="00:00:46.883" out="00:00:53.167"/>
    <blank length="00:00:02.417"/>
    <entry producer="chain19" in="00:00:56.567" out="00:00:57.650"/>
    <blank length="00:00:03.783"/>
    <entry producer="chain20" in="00:01:01.817" out="00:01:10.683"/>
    <blank length="00:00:00.800"/>
    <entry producer="chain21" in="00:01:11.500" out="00:01:22.600"/>
    <blank length="00:00:02.950"/>
    <entry producer="chain22" in="00:01:29.417" out="00:01:43.233"/>
    <blank length="00:00:00.317"/>
    <entry producer="chain23" in="00:01:44.800" out="00:01:50.567"/>
    <blank length="00:00:00.517"/>
    <entry producer="chain24" in="00:01:51.100" out="00:01:58.667"/>
    <blank length="00:00:02.233"/>
    <entry producer="chain25" in="00:02:01.633" out="00:02:02.883"/>
    <blank length="00:00:03.267"/>
    <entry producer="chain26" in="00:02:06.167" out="00:02:17.250"/>
    <blank length="00:00:00.550"/>
    <entry producer="chain27" in="00:02:17.817" out="00:02:25.333"/>
    <blank length="00:00:05.033"/>
    <entry producer="chain28" in="00:02:27.867" out="00:02:32.117"/>
    <blank length="00:00:00.433"/>
    <entry producer="chain29" in="00:02:32.567" out="00:02:39.383"/>
    <blank length="00:00:02.700"/>
    <entry producer="chain30" in="00:02:42.100" out="00:02:55.767"/>
    <blank length="00:00:02.650"/>
    <entry producer="chain31" in="00:02:41.000" out="00:02:46.500"/>
    <blank length="00:00:00.283"/>
    <entry producer="chain32" in="00:02:47.050" out="00:03:06.033"/>
    <blank length="00:00:00.250"/>
    <entry producer="chain33" in="00:03:06.967" out="00:03:12.017"/>
    <entry producer="chain34" in="00:03:12.533" out="00:03:38.717"/>
    <blank length="00:00:02.683"/>
    <entry producer="chain35" in="00:03:41.567" out="00:03:45.183"/>
    <blank length="00:00:01.700"/>
    <entry producer="chain36" in="00:03:47.767" out="00:03:54.033"/>
    <blank length="00:00:00.400"/>
    <entry producer="chain37" in="00:03:55.317" out="00:04:13.533"/>
    <blank length="00:00:04.467"/>
    <entry producer="chain38" in="00:04:17.550" out="00:04:47.633"/>
    <entry producer="chain39" in="00:04:48.150" out="00:05:10.183"/>
    <blank length="00:00:05.050"/>
    <entry producer="chain40" in="00:05:29.200" out="00:05:29.967"/>
    <blank length="00:00:04.100"/>
    <entry producer="chain41" in="00:05:34.200" out="00:05:46.700"/>
    <entry producer="chain42" in="00:05:47.400" out="00:05:55.083"/>
    <blank length="00:00:02.750"/>
    <entry producer="chain43" in="00:05:58.200" out="00:06:03.417"/>
    <blank length="00:00:00.417"/>
    <entry producer="chain44" in="00:06:03.850" out="00:06:07.200"/>
    <blank length="00:00:00.133"/>
    <entry producer="chain45" in="00:06:09.517" out="00:06:13.533"/>
    <blank length="00:00:06.667"/>
    <entry producer="chain46" in="00:06:17.333" out="00:06:21.617"/>
    <blank length="00:00:03.000"/>
    <entry producer="chain47" in="00:06:25.300" out="00:06:27.500"/>
    <blank length="00:00:00.250"/>
    <entry producer="chain48" in="00:06:28.733" out="00:06:34.333"/>
    <blank length="00:00:03.600"/>
    <entry producer="chain49" in="00:06:37.317" out="00:06:42.883"/>
    <blank length="00:00:01.717"/>
    <entry producer="chain50" in="00:06:44.917" out="00:06:47.750"/>
    <blank length="00:00:08.817"/>
    <entry producer="chain51" in="00:06:54.950" out="00:07:03.067"/>
    <blank length="00:00:01.550"/>
    <entry producer="chain52" in="00:07:14.483" out="00:07:38.967"/>
    <blank length="00:00:00.117"/>
    <entry producer="chain53" in="00:07:41.267" out="00:07:45.867"/>
    <blank length="00:00:02.800"/>
    <entry producer="chain54" in="00:07:46.800" out="00:07:49.017"/>
    <entry producer="chain55" in="00:07:49.867" out="00:08:07.500"/>
    <blank length="00:00:00.133"/>
    <entry producer="chain56" in="00:08:07.900" out="00:08:17.150"/>
    <blank length="00:00:02.650"/>
    <entry producer="chain57" in="00:08:37.950" out="00:09:13.217"/>
    <blank length="00:00:02.117"/>
    <entry producer="chain58" in="00:09:13.950" out="00:09:19.367"/>
    <blank length="00:00:00.083"/>
    <entry producer="chain59" in="00:09:20.967" out="00:09:43.350"/>
    <blank length="00:00:12.033"/>
    <entry producer="chain60" in="00:09:58.767" out="00:10:12.450"/>
    <blank length="00:00:05.150"/>
    <entry producer="chain61" in="00:10:18.650" out="00:10:34.467"/>
    <blank length="00:00:02.917"/>
    <entry producer="chain62" in="00:10:38.417" out="00:10:44.550"/>
    <blank length="00:00:03.867"/>
    <entry producer="chain63" in="00:10:46.950" out="00:10:57.583"/>
    <entry producer="chain64" in="00:10:59.817" out="00:11:05.817"/>
    <blank length="00:00:03.300"/>
    <entry producer="chain65" in="00:11:10.950" out="00:11:29.933"/>
    <blank length="00:00:06.633"/>
    <entry producer="chain66" in="00:11:33.600" out="00:11:50.083"/>
  </playlist>
  <chain id="chain67" out="00:02:07.417">
    <property name="length">00:02:07.433</property>
    <property name="eof">pause</property>
    <property name="resource">soft-background-piano-285589.mp3</property>
    <property name="mlt_service">avformat-novalidate</property>
    <property name="meta.media.nb_streams">1</property>
    <property name="meta.media.0.stream.type">audio</property>
    <property name="meta.media.0.codec.sample_fmt">fltp</property>
    <property name="meta.media.0.codec.sample_rate">48000</property>
    <property name="meta.media.0.codec.channels">2</property>
    <property name="meta.media.0.codec.layout">stereo</property>
    <property name="meta.media.0.codec.name">mp3float</property>
    <property name="meta.media.0.codec.long_name">MP3 (MPEG audio layer 3)</property>
    <property name="meta.media.0.codec.bit_rate">256000</property>
    <property name="seekable">1</property>
    <property name="audio_index">0</property>
    <property name="video_index">-1</property>
    <property name="creation_time">2025-02-26T18:16:24</property>
    <property name="astream">0</property>
    <property name="shotcut:skipConvert">0</property>
    <property name="shotcut:hash">ed183e8033b848852c2973a87d7a1f46</property>
    <property name="ignore_points">0</property>
    <property name="shotcut:caption">soft-background-piano-285589.mp3</property>
    <property name="xml">was here</property>
  </chain>
  <chain id="chain68" out="00:02:07.417">
    <property name="length">00:02:07.433</property>
    <property name="eof">pause</property>
    <property name="resource">soft-background-piano-285589.mp3</property>
    <property name="mlt_service">avformat-novalidate</property>
    <property name="meta.media.nb_streams">1</property>
    <property name="meta.media.0.stream.type">audio</property>
    <property name="meta.media.0.codec.sample_fmt">fltp</property>
    <property name="meta.media.0.codec.sample_rate">48000</property>
    <property name="meta.media.0.codec.channels">2</property>
    <property name="meta.media.0.codec.layout">stereo</property>
    <property name="meta.media.0.codec.name">mp3float</property>
    <property name="meta.media.0.codec.long_name">MP3 (MPEG audio layer 3)</property>
    <property name="meta.media.0.codec.bit_rate">256000</property>
    <property name="seekable">1</property>
    <property name="audio_index">0</property>
    <property name="video_index">-1</property>
    <property name="creation_time">2025-02-26T18:16:24</property>
    <property name="astream">0</property>
    <property name="shotcut:skipConvert">0</property>
    <property name="shotcut:hash">ed183e8033b848852c2973a87d7a1f46</property>
    <property name="ignore_points">0</property>
    <property name="shotcut:caption">soft-background-piano-285589.mp3</property>
    <property name="xml">was here</property>
    <filter id="filter3" in="00:00:07.650" out="00:02:02.467">
      <property name="window">75</property>
      <property name="max_gain">20dB</property>
      <property name="level">-24</property>
      <property name="mlt_service">volume</property>
    </filter>
  </chain>
  <chain id="chain69" out="00:02:07.417">
    <property name="length">00:02:07.433</property>
    <property name="eof">pause</property>
    <property name="resource">soft-background-piano-285589.mp3</property>
    <property name="mlt_service">avformat-novalidate</property>
    <property name="meta.media.nb_streams">1</property>
    <property name="meta.media.0.stream.type">audio</property>
    <property name="meta.media.0.codec.sample_fmt">fltp</property>
    <property name="meta.media.0.codec.sample_rate">48000</property>
    <property name="meta.media.0.codec.channels">2</property>
    <property name="meta.media.0.codec.layout">stereo</property>
    <property name="meta.media.0.codec.name">mp3float</property>
    <property name="meta.media.0.codec.long_name">MP3 (MPEG audio layer 3)</property>
    <property name="meta.media.0.codec.bit_rate">256000</property>
    <property name="seekable">1</property>
    <property name="audio_index">0</property>
    <property name="video_index">-1</property>
    <property name="creation_time">2025-02-26T18:16:24</property>
    <property name="astream">0</property>
    <property name="shotcut:skipConvert">0</property>
    <property name="shotcut:hash">ed183e8033b848852c2973a87d7a1f46</property>
    <property name="ignore_points">0</property>
    <property name="shotcut:caption">soft-background-piano-285589.mp3</property>
    <property name="xml">was here</property>
    <filter id="filter4" out="00:00:39.550">
      <property name="window">75</property>
      <property name="max_gain">20dB</property>
      <property name="level">-24</property>
      <property name="mlt_service">volume</property>
    </filter>
  </chain>
  <chain id="chain70" out="00:02:07.417">
    <property name="length">00:02:07.433</property>
    <property name="eof">pause</property>
    <property name="resource">soft-background-piano-285589.mp3</property>
    <property name="mlt_service">avformat-novalidate</property>
    <property name="meta.media.nb_streams">1</property>
    <property name="meta.media.0.stream.type">audio</property>
    <property name="meta.media.0.codec.sample_fmt">fltp</property>
    <property name="meta.media.0.codec.sample_rate">48000</property>
    <property name="meta.media.0.codec.channels">2</property>
    <property name="meta.media.0.codec.layout">stereo</property>
    <property name="meta.media.0.codec.name">mp3float</property>
    <property name="meta.media.0.codec.long_name">MP3 (MPEG audio layer 3)</property>
    <property name="meta.media.0.codec.bit_rate">256000</property>
    <property name="seekable">1</property>
    <property name="audio_index">0</property>
    <property name="video_index">-1</property>
    <property name="creation_time">2025-02-26T18:16:24</property>
    <property name="astream">0</property>
    <property name="shotcut:skipConvert">0</property>
    <property name="shotcut:hash">ed183e8033b848852c2973a87d7a1f46</property>
    <property name="ignore_points">0</property>
    <property name="shotcut:caption">soft-background-piano-285589.mp3</property>
    <property name="xml">was here</property>
    <filter id="filter5" out="00:02:07.417">
      <property name="window">75</property>
      <property name="max_gain">20dB</property>
      <property name="level">-24</property>
      <property name="mlt_service">volume</property>
    </filter>
  </chain>
  <chain id="chain71" out="00:02:07.417">
    <property name="length">00:02:07.433</property>
    <property name="eof">pause</property>
    <property name="resource">soft-background-piano-285589.mp3</property>
    <property name="mlt_service">avformat-novalidate</property>
    <property name="meta.media.nb_streams">1</property>
    <property name="meta.media.0.stream.type">audio</property>
    <property name="meta.media.0.codec.sample_fmt">fltp</property>
    <property name="meta.media.0.codec.sample_rate">48000</property>
    <property name="meta.media.0.codec.channels">2</property>
    <property name="meta.media.0.codec.layout">stereo</property>
    <property name="meta.media.0.codec.name">mp3float</property>
    <property name="meta.media.0.codec.long_name">MP3 (MPEG audio layer 3)</property>
    <property name="meta.media.0.codec.bit_rate">256000</property>
    <property name="seekable">1</property>
    <property name="audio_index">0</property>
    <property name="video_index">-1</property>
    <property name="creation_time">2025-02-26T18:16:24</property>
    <property name="astream">0</property>
    <property name="shotcut:skipConvert">0</property>
    <property name="shotcut:hash">ed183e8033b848852c2973a87d7a1f46</property>
    <property name="ignore_points">0</property>
    <property name="shotcut:caption">soft-background-piano-285589.mp3</property>
    <property name="xml">was here</property>
    <filter id="filter6" in="00:00:39.567" out="00:00:45.583">
      <property name="window">75</property>
      <property name="max_gain">20dB</property>
      <property name="level">-24</property>
      <property name="mlt_service">volume</property>
    </filter>
  </chain>
  <chain id="chain72" out="00:02:07.417">
    <property name="length">00:02:07.433</property>
    <property name="eof">pause</property>
    <property name="resource">soft-background-piano-285589.mp3</property>
    <property name="mlt_service">avformat-novalidate</property>
    <property name="meta.media.nb_streams">1</property>
    <property name="meta.media.0.stream.type">audio</property>
    <property name="meta.media.0.codec.sample_fmt">fltp</property>
    <property name="meta.media.0.codec.sample_rate">48000</property>
    <property name="meta.media.0.codec.channels">2</property>
    <property name="meta.media.0.codec.layout">stereo</property>
    <property name="meta.media.0.codec.name">mp3float</property>
    <property name="meta.media.0.codec.long_name">MP3 (MPEG audio layer 3)</property>
    <property name="meta.media.0.codec.bit_rate">256000</property>
    <property name="seekable">1</property>
    <property name="audio_index">0</property>
    <property name="video_index">-1</property>
    <property name="creation_time">2025-02-26T18:16:24</property>
    <property name="astream">0</property>
    <property name="shotcut:skipConvert">0</property>
    <property name="shotcut:hash">ed183e8033b848852c2973a87d7a1f46</property>
    <property name="ignore_points">0</property>
    <property name="shotcut:caption">soft-background-piano-285589.mp3</property>
    <property name="xml">was here</property>
    <filter id="filter7" in="00:00:39.567" out="00:02:07.417">
      <property name="window">75</property>
      <property name="max_gain">20dB</property>
      <property name="level">-24</property>
      <property name="mlt_service">volume</property>
    </filter>
  </chain>
  <chain id="chain73" out="00:02:07.417">
    <property name="length">00:02:07.433</property>
    <property name="eof">pause</property>
    <property name="resource">soft-background-piano-285589.mp3</property>
    <property name="mlt_service">avformat-novalidate</property>
    <property name="meta.media.nb_streams">1</property>
    <property name="meta.media.0.stream.type">audio</property>
    <property name="meta.media.0.codec.sample_fmt">fltp</property>
    <property name="meta.media.0.codec.sample_rate">48000</property>
    <property name="meta.media.0.codec.channels">2</property>
    <property name="meta.media.0.codec.layout">stereo</property>
    <property name="meta.media.0.codec.name">mp3float</property>
    <property name="meta.media.0.codec.long_name">MP3 (MPEG audio layer 3)</property>
    <property name="meta.media.0.codec.bit_rate">256000</property>
    <property name="seekable">1</property>
    <property name="audio_index">0</property>
    <property name="video_index">-1</property>
    <property name="creation_time">2025-02-26T18:16:24</property>
    <property name="astream">0</property>
    <property name="shotcut:skipConvert">0</property>
    <property name="shotcut:hash">ed183e8033b848852c2973a87d7a1f46</property>
    <property name="ignore_points">0</property>
    <property name="shotcut:caption">soft-background-piano-285589.mp3</property>
    <property name="xml">was here</property>
    <filter id="filter8" in="00:00:45.600" out="00:02:07.417">
      <property name="window">75</property>
      <property name="max_gain">20dB</property>
      <property name="level">-24</property>
      <property name="mlt_service">volume</property>
    </filter>
  </chain>
  <chain id="chain74" out="00:02:07.417">
    <property name="length">00:02:07.433</property>
    <property name="eof">pause</property>
    <property name="resource">soft-background-piano-285589.mp3</property>
    <property name="mlt_service">avformat-novalidate</property>
    <property name="meta.media.nb_streams">1</property>
    <property name="meta.media.0.stream.type">audio</property>
    <property name="meta.media.0.codec.sample_fmt">fltp</property>
    <property name="meta.media.0.codec.sample_rate">48000</property>
    <property name="meta.media.0.codec.channels">2</property>
    <property name="meta.media.0.codec.layout">stereo</property>
    <property name="meta.media.0.codec.name">mp3float</property>
    <property name="meta.media.0.codec.long_name">MP3 (MPEG audio layer 3)</property>
    <property name="meta.media.0.codec.bit_rate">256000</property>
    <property name="seekable">1</property>
    <property name="audio_index">0</property>
    <property name="video_index">-1</property>
    <property name="creation_time">2025-02-26T18:16:24</property>
    <property name="astream">0</property>
    <property name="shotcut:skipConvert">0</property>
    <property name="shotcut:hash">ed183e8033b848852c2973a87d7a1f46</property>
    <property name="ignore_points">0</property>
    <property name="shotcut:caption">soft-background-piano-285589.mp3</property>
    <property name="xml">was here</property>
    <filter id="filter9" in="00:00:45.600" out="00:02:07.417">
      <property name="window">75</property>
      <property name="max_gain">20dB</property>
      <property name="level">-24</property>
      <property name="mlt_service">volume</property>
    </filter>
  </chain>
  <chain id="chain75" out="00:02:07.417">
    <property name="length">00:02:07.433</property>
    <property name="eof">pause</property>
    <property name="resource">soft-background-piano-285589.mp3</property>
    <property name="mlt_service">avformat-novalidate</property>
    <property name="meta.media.nb_streams">1</property>
    <property name="meta.media.0.stream.type">audio</property>
    <property name="meta.media.0.codec.sample_fmt">fltp</property>
    <property name="meta.media.0.codec.sample_rate">48000</property>
    <property name="meta.media.0.codec.channels">2</property>
    <property name="meta.media.0.codec.layout">stereo</property>
    <property name="meta.media.0.codec.name">mp3float</property>
    <property name="meta.media.0.codec.long_name">MP3 (MPEG audio layer 3)</property>
    <property name="meta.media.0.codec.bit_rate">256000</property>
    <property name="seekable">1</property>
    <property name="audio_index">0</property>
    <property name="video_index">-1</property>
    <property name="creation_time">2025-02-26T18:16:24</property>
    <property name="astream">0</property>
    <property name="shotcut:skipConvert">0</property>
    <property name="shotcut:hash">ed183e8033b848852c2973a87d7a1f46</property>
    <property name="ignore_points">0</property>
    <property name="shotcut:caption">soft-background-piano-285589.mp3</property>
    <property name="xml">was here</property>
    <filter id="filter10" in="00:00:45.600" out="00:02:07.417">
      <property name="window">75</property>
      <property name="max_gain">20dB</property>
      <property name="level">-24</property>
      <property name="mlt_service">volume</property>
    </filter>
  </chain>
  <chain id="chain76" out="00:02:07.417">
    <property name="length">00:02:07.433</property>
    <property name="eof">pause</property>
    <property name="resource">soft-background-piano-285589.mp3</property>
    <property name="mlt_service">avformat-novalidate</property>
    <property name="meta.media.nb_streams">1</property>
    <property name="meta.media.0.stream.type">audio</property>
    <property name="meta.media.0.codec.sample_fmt">fltp</property>
    <property name="meta.media.0.codec.sample_rate">48000</property>
    <property name="meta.media.0.codec.channels">2</property>
    <property name="meta.media.0.codec.layout">stereo</property>
    <property name="meta.media.0.codec.name">mp3float</property>
    <property name="meta.media.0.codec.long_name">MP3 (MPEG audio layer 3)</property>
    <property name="meta.media.0.codec.bit_rate">256000</property>
    <property name="seekable">1</property>
    <property name="audio_index">0</property>
    <property name="video_index">-1</property>
    <property name="creation_time">2025-02-26T18:16:24</property>
    <property name="astream">0</property>
    <property name="shotcut:skipConvert">0</property>
    <property name="shotcut:hash">ed183e8033b848852c2973a87d7a1f46</property>
    <property name="ignore_points">0</property>
    <property name="shotcut:caption">soft-background-piano-285589.mp3</property>
    <property name="xml">was here</property>
    <filter id="filter11" in="00:00:45.600" out="00:01:20.117">
      <property name="window">75</property>
      <property name="max_gain">20dB</property>
      <property name="level">-24</property>
      <property name="mlt_service">volume</property>
    </filter>
    <filter id="filter12" in="00:00:45.600" out="00:01:20.117">
      <property name="window">75</property>
      <property name="max_gain">20dB</property>
      <property name="level">00:00:33.033=0;00:00:34.517=-60</property>
      <property name="mlt_service">volume</property>
      <property name="shotcut:filter">fadeOutVolume</property>
      <property name="shotcut:animOut">00:00:01.500</property>
    </filter>
  </chain>
  <chain id="chain77" out="00:02:07.417">
    <property name="length">00:02:07.433</property>
    <property name="eof">pause</property>
    <property name="resource">soft-background-piano-285589.mp3</property>
    <property name="mlt_service">avformat-novalidate</property>
    <property name="meta.media.nb_streams">1</property>
    <property name="meta.media.0.stream.type">audio</property>
    <property name="meta.media.0.codec.sample_fmt">fltp</property>
    <property name="meta.media.0.codec.sample_rate">48000</property>
    <property name="meta.media.0.codec.channels">2</property>
    <property name="meta.media.0.codec.layout">stereo</property>
    <property name="meta.media.0.codec.name">mp3float</property>
    <property name="meta.media.0.codec.long_name">MP3 (MPEG audio layer 3)</property>
    <property name="meta.media.0.codec.bit_rate">256000</property>
    <property name="seekable">1</property>
    <property name="audio_index">0</property>
    <property name="video_index">-1</property>
    <property name="creation_time">2025-02-26T18:16:24</property>
    <property name="astream">0</property>
    <property name="shotcut:skipConvert">0</property>
    <property name="shotcut:hash">ed183e8033b848852c2973a87d7a1f46</property>
    <property name="ignore_points">0</property>
    <property name="shotcut:caption">soft-background-piano-285589.mp3</property>
    <property name="xml">was here</property>
    <filter id="filter13" out="00:00:08.050">
      <property name="window">75</property>
      <property name="max_gain">20dB</property>
      <property name="level">00:00:07.067=0;00:00:08.050=-60</property>
      <property name="mlt_service">volume</property>
      <property name="shotcut:filter">fadeOutVolume</property>
      <property name="shotcut:animOut">00:00:01.000</property>
      <property name="disable">0</property>
    </filter>
  </chain>
  <playlist id="playlist2">
    <property name="shotcut:audio">1</property>
    <property name="shotcut:name">A2</property>
    <property name="shotcut:lock">0</property>
    <entry producer="chain67" in="00:00:00.000" out="00:00:07.633"/>
    <entry producer="chain68" in="00:00:07.650" out="00:02:02.467"/>
    <entry producer="chain69" in="00:00:00.000" out="00:00:39.550"/>
    <entry producer="chain70" in="00:00:00.000" out="00:02:07.417"/>
    <entry producer="chain71" in="00:00:39.567" out="00:00:45.583"/>
    <entry producer="chain72" in="00:00:39.567" out="00:02:07.417"/>
    <entry producer="chain73" in="00:00:45.600" out="00:02:07.417"/>
    <entry producer="chain74" in="00:00:45.600" out="00:02:07.417"/>
    <entry producer="chain75" in="00:00:45.600" out="00:02:07.417"/>
    <entry producer="chain76" in="00:00:45.600" out="00:01:20.117"/>
    <entry producer="chain77" in="00:00:00.000" out="00:00:08.050"/>
  </playlist>
  <tractor id="tractor1" title="Shotcut version 24.06.26" in="00:00:00.000" out="00:11:11.467">
    <property name="shotcut">1</property>
    <property name="shotcut:projectAudioChannels">2</property>
    <property name="shotcut:projectFolder">0</property>
    <property name="shotcut:scaleFactor">2.23245</property>
    <property name="shotcut:skipConvert">0</property>
    <track producer="background"/>
    <track producer="playlist0"/>
    <track producer="playlist1" hide="video"/>
    <track producer="playlist2" hide="video"/>
    <transition id="transition2">
      <property name="a_track">0</property>
      <property name="b_track">1</property>
      <property name="mlt_service">mix</property>
      <property name="always_active">1</property>
      <property name="sum">1</property>
    </transition>
    <transition id="transition3">
      <property name="a_track">0</property>
      <property name="b_track">1</property>
      <property name="version">0.9</property>
      <property name="mlt_service">frei0r.cairoblend</property>
      <property name="threads">0</property>
      <property name="disable">1</property>
    </transition>
    <transition id="transition4">
      <property name="a_track">0</property>
      <property name="b_track">2</property>
      <property name="mlt_service">mix</property>
      <property name="always_active">1</property>
      <property name="sum">1</property>
    </transition>
    <transition id="transition5">
      <property name="a_track">0</property>
      <property name="b_track">3</property>
      <property name="mlt_service">mix</property>
      <property name="always_active">1</property>
      <property name="sum">1</property>
    </transition>
  </tractor>
</mlt>
